<?xml version="1.0" encoding="UTF-8" standalone="no"?>
<!DOCTYPE svg PUBLIC "-//W3C//DTD SVG 1.1//EN"
 "http://www.w3.org/Graphics/SVG/1.1/DTD/svg11.dtd">
<!-- Generated by graphviz version 3.0.0 (20220226.1711)
 -->
<!-- Title: G Pages: 1 -->
<svg width="506pt" height="476pt"
 viewBox="0.00 0.00 506.00 476.00" xmlns="http://www.w3.org/2000/svg" xmlns:xlink="http://www.w3.org/1999/xlink">
<g id="graph0" class="graph" transform="scale(1 1) rotate(0) translate(4 472)">
<title>G</title>
<polygon fill="white" stroke="transparent" points="-4,4 -4,-472 502,-472 502,4 -4,4"/>
<!-- parse -->
<g id="node1" class="node">
<title>parse</title>
<ellipse fill="none" stroke="black" cx="289" cy="-450" rx="29.5" ry="18"/>
<text text-anchor="middle" x="289" y="-446.3" font-family="Times,serif" font-size="14.00">parse</text>
</g>
<!-- eval -->
<g id="node2" class="node">
<title>eval</title>
<ellipse fill="none" stroke="black" cx="243" cy="-90" rx="27" ry="18"/>
<text text-anchor="middle" x="243" y="-86.3" font-family="Times,serif" font-size="14.00">eval</text>
</g>
<!-- parse&#45;&gt;eval -->
<g id="edge6" class="edge">
<title>parse&#45;&gt;eval</title>
<path fill="none" stroke="black" d="M316.75,-443.72C373.61,-431.11 498,-393.64 498,-307 498,-307 498,-307 498,-233 498,-134.44 350.78,-103.67 280.06,-94.58"/>
<polygon fill="black" stroke="black" points="280.15,-91.07 269.81,-93.35 279.32,-98.02 280.15,-91.07"/>
</g>
<!-- main -->
<g id="node3" class="node">
<title>main</title>
<ellipse fill="none" stroke="black" cx="105" cy="-18" rx="28.7" ry="18"/>
<text text-anchor="middle" x="105" y="-14.3" font-family="Times,serif" font-size="14.00">main</text>
</g>
<!-- parse&#45;&gt;main -->
<g id="edge1" class="edge">
<title>parse&#45;&gt;main</title>
<path fill="none" stroke="black" d="M259.7,-448.01C186.23,-443.83 0,-421.88 0,-307 0,-307 0,-307 0,-161 0,-108.59 46.81,-62.86 77.92,-38.26"/>
<polygon fill="black" stroke="black" points="80.42,-40.75 86.23,-31.89 76.16,-35.2 80.42,-40.75"/>
</g>
<!-- syntax -->
<g id="node4" class="node">
<title>syntax</title>
<ellipse fill="none" stroke="black" cx="289" cy="-378" rx="33.6" ry="18"/>
<text text-anchor="middle" x="289" y="-374.3" font-family="Times,serif" font-size="14.00">syntax</text>
</g>
<!-- parse&#45;&gt;syntax -->
<g id="edge21" class="edge">
<title>parse&#45;&gt;syntax</title>
<path fill="none" stroke="black" d="M283.12,-432.05C282.29,-424.23 282.05,-414.75 282.41,-405.98"/>
<polygon fill="black" stroke="black" points="285.92,-406.01 283.14,-395.79 278.93,-405.51 285.92,-406.01"/>
</g>
<!-- preprocess -->
<g id="node6" class="node">
<title>preprocess</title>
<ellipse fill="none" stroke="black" cx="422" cy="-234" rx="48.19" ry="18"/>
<text text-anchor="middle" x="422" y="-230.3" font-family="Times,serif" font-size="14.00">preprocess</text>
</g>
<!-- parse&#45;&gt;preprocess -->
<g id="edge16" class="edge">
<title>parse&#45;&gt;preprocess</title>
<path fill="none" stroke="black" d="M307.25,-435.55C333.91,-414.82 382.93,-372.36 407,-324 416.57,-304.77 420.19,-280.61 421.49,-262.32"/>
<polygon fill="black" stroke="black" points="424.99,-262.48 422.02,-252.31 418,-262.11 424.99,-262.48"/>
</g>
<!-- eval&#45;&gt;main -->
<g id="edge2" class="edge">
<title>eval&#45;&gt;main</title>
<path fill="none" stroke="black" d="M222.04,-78.37C199.07,-66.72 162.01,-47.92 135.75,-34.6"/>
<polygon fill="black" stroke="black" points="137.11,-31.37 126.61,-29.96 133.95,-37.61 137.11,-31.37"/>
</g>
<!-- syntax&#45;&gt;parse -->
<g id="edge22" class="edge">
<title>syntax&#45;&gt;parse</title>
<path fill="none" stroke="black" d="M294.86,-395.79C295.7,-403.59 295.94,-413.07 295.6,-421.85"/>
<polygon fill="black" stroke="black" points="292.09,-421.83 294.88,-432.05 299.07,-422.33 292.09,-421.83"/>
</g>
<!-- syntax&#45;&gt;eval -->
<g id="edge3" class="edge">
<title>syntax&#45;&gt;eval</title>
<path fill="none" stroke="black" d="M255.57,-374.37C197.41,-369.02 81.47,-354.69 57,-324 -8.33,-242.06 146.03,-143.98 213.44,-106.55"/>
<polygon fill="black" stroke="black" points="215.25,-109.55 222.34,-101.68 211.89,-103.41 215.25,-109.55"/>
</g>
<!-- pushout -->
<g id="node5" class="node">
<title>pushout</title>
<ellipse fill="none" stroke="black" cx="276" cy="-162" rx="38.19" ry="18"/>
<text text-anchor="middle" x="276" y="-158.3" font-family="Times,serif" font-size="14.00">pushout</text>
</g>
<!-- syntax&#45;&gt;pushout -->
<g id="edge17" class="edge">
<title>syntax&#45;&gt;pushout</title>
<path fill="none" stroke="black" d="M311.07,-364.34C324.78,-355.11 341.23,-341.23 349,-324 355.58,-309.41 353.18,-303.44 349,-288 338.65,-249.76 313.37,-211.22 295.47,-187.24"/>
<polygon fill="black" stroke="black" points="298.1,-184.92 289.25,-179.1 292.53,-189.17 298.1,-184.92"/>
</g>
<!-- syntax&#45;&gt;preprocess -->
<g id="edge15" class="edge">
<title>syntax&#45;&gt;preprocess</title>
<path fill="none" stroke="black" d="M316.07,-367C336.45,-358.3 363.88,-343.94 382,-324 398.13,-306.25 408.65,-280.92 414.83,-261.82"/>
<polygon fill="black" stroke="black" points="418.2,-262.79 417.76,-252.2 411.5,-260.75 418.2,-262.79"/>
</g>
<!-- match_ctxs -->
<g id="node7" class="node">
<title>match_ctxs</title>
<ellipse fill="none" stroke="black" cx="289" cy="-306" rx="51.19" ry="18"/>
<text text-anchor="middle" x="289" y="-302.3" font-family="Times,serif" font-size="14.00">match_ctxs</text>
</g>
<!-- syntax&#45;&gt;match_ctxs -->
<g id="edge14" class="edge">
<title>syntax&#45;&gt;match_ctxs</title>
<path fill="none" stroke="black" d="M289,-359.7C289,-351.98 289,-342.71 289,-334.11"/>
<polygon fill="black" stroke="black" points="292.5,-334.1 289,-324.1 285.5,-334.1 292.5,-334.1"/>
</g>
<!-- match_atoms -->
<g id="node8" class="node">
<title>match_atoms</title>
<ellipse fill="none" stroke="black" cx="124" cy="-306" rx="58.49" ry="18"/>
<text text-anchor="middle" x="124" y="-302.3" font-family="Times,serif" font-size="14.00">match_atoms</text>
</g>
<!-- syntax&#45;&gt;match_atoms -->
<g id="edge13" class="edge">
<title>syntax&#45;&gt;match_atoms</title>
<path fill="none" stroke="black" d="M263.22,-366.06C237.37,-355.1 197.14,-338.03 166.55,-325.05"/>
<polygon fill="black" stroke="black" points="167.57,-321.68 156.99,-321 164.83,-328.12 167.57,-321.68"/>
</g>
<!-- match -->
<g id="node9" class="node">
<title>match</title>
<ellipse fill="none" stroke="black" cx="210" cy="-234" rx="32.49" ry="18"/>
<text text-anchor="middle" x="210" y="-230.3" font-family="Times,serif" font-size="14.00">match</text>
</g>
<!-- syntax&#45;&gt;match -->
<g id="edge10" class="edge">
<title>syntax&#45;&gt;match</title>
<path fill="none" stroke="black" d="M268.09,-363.74C254.87,-354.26 238.54,-340.32 229,-324 218.01,-305.18 213.34,-280.81 211.38,-262.32"/>
<polygon fill="black" stroke="black" points="214.86,-261.87 210.51,-252.21 207.88,-262.47 214.86,-261.87"/>
</g>
<!-- pushout&#45;&gt;eval -->
<g id="edge4" class="edge">
<title>pushout&#45;&gt;eval</title>
<path fill="none" stroke="black" d="M268.01,-144.05C264.1,-135.77 259.32,-125.62 254.99,-116.42"/>
<polygon fill="black" stroke="black" points="258.12,-114.86 250.69,-107.31 251.79,-117.84 258.12,-114.86"/>
</g>
<!-- preprocess&#45;&gt;eval -->
<g id="edge5" class="edge">
<title>preprocess&#45;&gt;eval</title>
<path fill="none" stroke="black" d="M413.86,-216.2C403.65,-196.62 384.47,-164.35 360,-144 335.59,-123.7 302.14,-109.58 277.26,-101.05"/>
<polygon fill="black" stroke="black" points="278.1,-97.65 267.51,-97.85 275.91,-104.3 278.1,-97.65"/>
</g>
<!-- preprocess&#45;&gt;pushout -->
<g id="edge18" class="edge">
<title>preprocess&#45;&gt;pushout</title>
<path fill="none" stroke="black" d="M393.5,-219.34C369.96,-208.05 336.42,-191.97 311.2,-179.88"/>
<polygon fill="black" stroke="black" points="312.51,-176.62 301.98,-175.45 309.48,-182.93 312.51,-176.62"/>
</g>
<!-- match_ctxs&#45;&gt;eval -->
<g id="edge7" class="edge">
<title>match_ctxs&#45;&gt;eval</title>
<path fill="none" stroke="black" d="M299.74,-287.95C317.51,-257.34 348.68,-191.82 323,-144 312.96,-125.3 293.1,-112.09 275.68,-103.53"/>
<polygon fill="black" stroke="black" points="276.88,-100.23 266.33,-99.25 273.96,-106.59 276.88,-100.23"/>
</g>
<!-- match_ctxs&#45;&gt;pushout -->
<g id="edge19" class="edge">
<title>match_ctxs&#45;&gt;pushout</title>
<path fill="none" stroke="black" d="M287.43,-287.87C285.22,-263.67 281.15,-219.21 278.51,-190.39"/>
<polygon fill="black" stroke="black" points="281.97,-189.83 277.57,-180.19 275,-190.47 281.97,-189.83"/>
</g>
<!-- match_ctxs&#45;&gt;match -->
<g id="edge11" class="edge">
<title>match_ctxs&#45;&gt;match</title>
<path fill="none" stroke="black" d="M271.07,-289.12C260.2,-279.48 246.18,-267.06 234.31,-256.54"/>
<polygon fill="black" stroke="black" points="236.31,-253.64 226.51,-249.63 231.67,-258.88 236.31,-253.64"/>
</g>
<!-- match_atoms&#45;&gt;eval -->
<g id="edge8" class="edge">
<title>match_atoms&#45;&gt;eval</title>
<path fill="none" stroke="black" d="M132.13,-288.1C140.9,-270.06 155.44,-240.75 169,-216 188.34,-180.7 212.33,-140.83 227.65,-115.81"/>
<polygon fill="black" stroke="black" points="230.82,-117.34 233.07,-106.98 224.86,-113.67 230.82,-117.34"/>
</g>
<!-- match_atoms&#45;&gt;match -->
<g id="edge12" class="edge">
<title>match_atoms&#45;&gt;match</title>
<path fill="none" stroke="black" d="M143.95,-288.76C155.99,-278.96 171.47,-266.36 184.41,-255.83"/>
<polygon fill="black" stroke="black" points="186.95,-258.28 192.49,-249.25 182.53,-252.85 186.95,-258.28"/>
</g>
<!-- match&#45;&gt;eval -->
<g id="edge9" class="edge">
<title>match&#45;&gt;eval</title>
<path fill="none" stroke="black" d="M213.4,-215.88C217.03,-197.92 223.06,-168.9 229,-144 231.02,-135.54 233.38,-126.36 235.58,-118.06"/>
<polygon fill="black" stroke="black" points="239.04,-118.7 238.25,-108.13 232.28,-116.88 239.04,-118.7"/>
</g>
<!-- match&#45;&gt;pushout -->
<g id="edge20" class="edge">
<title>match&#45;&gt;pushout</title>
<path fill="none" stroke="black" d="M224.32,-217.81C233.02,-208.58 244.31,-196.61 254.11,-186.22"/>
<polygon fill="black" stroke="black" points="256.94,-188.32 261.25,-178.64 251.84,-183.52 256.94,-188.32"/>
</g>
</g>
</svg>
