<?xml version="1.0" encoding="UTF-8" standalone="no"?>
<!DOCTYPE svg PUBLIC "-//W3C//DTD SVG 1.1//EN"
 "http://www.w3.org/Graphics/SVG/1.1/DTD/svg11.dtd">
<!-- Generated by graphviz version 6.0.1 (20220911.1526)
 -->
<!-- Title: G Pages: 1 -->
<svg width="587pt" height="476pt"
 viewBox="0.00 0.00 587.00 476.00" xmlns="http://www.w3.org/2000/svg" xmlns:xlink="http://www.w3.org/1999/xlink">
<g id="graph0" class="graph" transform="scale(1 1) rotate(0) translate(4 472)">
<title>G</title>
<polygon fill="white" stroke="none" points="-4,4 -4,-472 583,-472 583,4 -4,4"/>
<!-- parser_parse -->
<g id="node1" class="node">
<title>parser_parse</title>
<ellipse fill="none" stroke="black" cx="355" cy="-450" rx="55.49" ry="18"/>
<text text-anchor="middle" x="355" y="-446.3" font-family="Times,serif" font-size="14.00">parser_parse</text>
</g>
<!-- eval_eval -->
<g id="node2" class="node">
<title>eval_eval</title>
<ellipse fill="none" stroke="black" cx="282" cy="-90" rx="44.39" ry="18"/>
<text text-anchor="middle" x="282" y="-86.3" font-family="Times,serif" font-size="14.00">eval_eval</text>
</g>
<!-- parser_parse&#45;&gt;eval_eval -->
<g id="edge6" class="edge">
<title>parser_parse&#45;&gt;eval_eval</title>
<path fill="none" stroke="black" d="M389.02,-435.51C451.68,-409.58 579,-351.43 579,-307 579,-307 579,-307 579,-233 579,-126.45 421.5,-99.78 335.89,-93.16"/>
<polygon fill="black" stroke="black" points="336.05,-89.66 325.82,-92.44 335.55,-96.64 336.05,-89.66"/>
</g>
<!-- bin_main -->
<g id="node3" class="node">
<title>bin_main</title>
<ellipse fill="none" stroke="black" cx="111" cy="-18" rx="44.39" ry="18"/>
<text text-anchor="middle" x="111" y="-14.3" font-family="Times,serif" font-size="14.00">bin_main</text>
</g>
<!-- parser_parse&#45;&gt;bin_main -->
<g id="edge1" class="edge">
<title>parser_parse&#45;&gt;bin_main</title>
<path fill="none" stroke="black" d="M307.86,-440.41C211.29,-421.48 0,-372.55 0,-307 0,-307 0,-307 0,-161 0,-108.87 47.02,-64.44 79.85,-39.78"/>
<polygon fill="black" stroke="black" points="82.25,-42.36 88.27,-33.65 78.13,-36.71 82.25,-42.36"/>
</g>
<!-- eval_syntax -->
<g id="node4" class="node">
<title>eval_syntax</title>
<ellipse fill="none" stroke="black" cx="355" cy="-378" rx="52.79" ry="18"/>
<text text-anchor="middle" x="355" y="-374.3" font-family="Times,serif" font-size="14.00">eval_syntax</text>
</g>
<!-- parser_parse&#45;&gt;eval_syntax -->
<g id="edge20" class="edge">
<title>parser_parse&#45;&gt;eval_syntax</title>
<path fill="none" stroke="black" d="M349.12,-432.05C348.3,-424.35 348.06,-415.03 348.39,-406.36"/>
<polygon fill="black" stroke="black" points="351.89,-406.49 349.09,-396.28 344.91,-406.01 351.89,-406.49"/>
</g>
<!-- eval_preprocess -->
<g id="node6" class="node">
<title>eval_preprocess</title>
<ellipse fill="none" stroke="black" cx="483" cy="-234" rx="67.69" ry="18"/>
<text text-anchor="middle" x="483" y="-230.3" font-family="Times,serif" font-size="14.00">eval_preprocess</text>
</g>
<!-- parser_parse&#45;&gt;eval_preprocess -->
<g id="edge15" class="edge">
<title>parser_parse&#45;&gt;eval_preprocess</title>
<path fill="none" stroke="black" d="M377.94,-433.44C390.75,-423.84 406.25,-410.59 417,-396 447.72,-354.31 466.9,-296.25 476.21,-262.44"/>
<polygon fill="black" stroke="black" points="479.7,-262.94 478.89,-252.37 472.94,-261.14 479.7,-262.94"/>
</g>
<!-- eval_eval&#45;&gt;bin_main -->
<g id="edge2" class="edge">
<title>eval_eval&#45;&gt;bin_main</title>
<path fill="none" stroke="black" d="M251.82,-76.65C223.7,-65.14 181.6,-47.9 150.75,-35.27"/>
<polygon fill="black" stroke="black" points="151.74,-31.9 141.16,-31.35 149.09,-38.38 151.74,-31.9"/>
</g>
<!-- eval_syntax&#45;&gt;parser_parse -->
<g id="edge21" class="edge">
<title>eval_syntax&#45;&gt;parser_parse</title>
<path fill="none" stroke="black" d="M360.91,-396.28C361.71,-404.03 361.94,-413.36 361.59,-422.01"/>
<polygon fill="black" stroke="black" points="358.09,-421.83 360.88,-432.05 365.08,-422.33 358.09,-421.83"/>
</g>
<!-- eval_syntax&#45;&gt;eval_eval -->
<g id="edge3" class="edge">
<title>eval_syntax&#45;&gt;eval_eval</title>
<path fill="none" stroke="black" d="M302.71,-375.48C225.75,-372.01 87.75,-360.7 57,-324 -14.92,-238.16 161.23,-144.86 243.01,-107.67"/>
<polygon fill="black" stroke="black" points="244.8,-110.7 252.49,-103.41 241.93,-104.31 244.8,-110.7"/>
</g>
<!-- eval_pushout -->
<g id="node5" class="node">
<title>eval_pushout</title>
<ellipse fill="none" stroke="black" cx="388" cy="-162" rx="57.69" ry="18"/>
<text text-anchor="middle" x="388" y="-158.3" font-family="Times,serif" font-size="14.00">eval_pushout</text>
</g>
<!-- eval_syntax&#45;&gt;eval_pushout -->
<g id="edge16" class="edge">
<title>eval_syntax&#45;&gt;eval_pushout</title>
<path fill="none" stroke="black" d="M368.64,-360.5C375.94,-350.59 384.19,-337.34 388,-324 400.98,-278.61 396.83,-223.03 392.51,-190.46"/>
<polygon fill="black" stroke="black" points="395.94,-189.75 391.06,-180.35 389.01,-190.74 395.94,-189.75"/>
</g>
<!-- eval_syntax&#45;&gt;eval_preprocess -->
<g id="edge14" class="edge">
<title>eval_syntax&#45;&gt;eval_preprocess</title>
<path fill="none" stroke="black" d="M377.44,-361.49C390.88,-351.62 407.86,-338.07 421,-324 439.23,-304.49 456.28,-279.29 467.87,-260.68"/>
<polygon fill="black" stroke="black" points="470.87,-262.49 473.11,-252.14 464.9,-258.84 470.87,-262.49"/>
</g>
<!-- eval_match_ctxs -->
<g id="node7" class="node">
<title>eval_match_ctxs</title>
<ellipse fill="none" stroke="black" cx="309" cy="-306" rx="70.39" ry="18"/>
<text text-anchor="middle" x="309" y="-302.3" font-family="Times,serif" font-size="14.00">eval_match_ctxs</text>
</g>
<!-- eval_syntax&#45;&gt;eval_match_ctxs -->
<g id="edge13" class="edge">
<title>eval_syntax&#45;&gt;eval_match_ctxs</title>
<path fill="none" stroke="black" d="M343.86,-360.05C338.38,-351.71 331.67,-341.49 325.59,-332.25"/>
<polygon fill="black" stroke="black" points="328.45,-330.22 320.03,-323.79 322.6,-334.07 328.45,-330.22"/>
</g>
<!-- eval_match_atoms -->
<g id="node8" class="node">
<title>eval_match_atoms</title>
<ellipse fill="none" stroke="black" cx="143" cy="-306" rx="77.19" ry="18"/>
<text text-anchor="middle" x="143" y="-302.3" font-family="Times,serif" font-size="14.00">eval_match_atoms</text>
</g>
<!-- eval_syntax&#45;&gt;eval_match_atoms -->
<g id="edge12" class="edge">
<title>eval_syntax&#45;&gt;eval_match_atoms</title>
<path fill="none" stroke="black" d="M318.56,-364.97C284.65,-353.77 233.74,-336.96 195.46,-324.32"/>
<polygon fill="black" stroke="black" points="196.12,-320.85 185.53,-321.04 193.93,-327.5 196.12,-320.85"/>
</g>
<!-- eval_pushout&#45;&gt;eval_eval -->
<g id="edge4" class="edge">
<title>eval_pushout&#45;&gt;eval_eval</title>
<path fill="none" stroke="black" d="M364.48,-145.46C349.35,-135.47 329.52,-122.38 313.09,-111.53"/>
<polygon fill="black" stroke="black" points="314.64,-108.36 304.37,-105.77 310.79,-114.2 314.64,-108.36"/>
</g>
<!-- eval_preprocess&#45;&gt;eval_eval -->
<g id="edge5" class="edge">
<title>eval_preprocess&#45;&gt;eval_eval</title>
<path fill="none" stroke="black" d="M482.23,-215.83C480.41,-195.89 474.43,-163.28 455,-144 423.51,-112.75 374.12,-99.85 336.16,-94.56"/>
<polygon fill="black" stroke="black" points="336.13,-91.03 325.78,-93.26 335.26,-97.98 336.13,-91.03"/>
</g>
<!-- eval_preprocess&#45;&gt;eval_pushout -->
<g id="edge17" class="edge">
<title>eval_preprocess&#45;&gt;eval_pushout</title>
<path fill="none" stroke="black" d="M460.97,-216.76C448.17,-207.33 431.86,-195.32 417.91,-185.04"/>
<polygon fill="black" stroke="black" points="419.71,-182.02 409.59,-178.91 415.56,-187.66 419.71,-182.02"/>
</g>
<!-- eval_match_ctxs&#45;&gt;eval_eval -->
<g id="edge7" class="edge">
<title>eval_match_ctxs&#45;&gt;eval_eval</title>
<path fill="none" stroke="black" d="M306.84,-287.85C302.17,-250.83 291.11,-163.18 285.46,-118.39"/>
<polygon fill="black" stroke="black" points="288.9,-117.72 284.17,-108.23 281.95,-118.59 288.9,-117.72"/>
</g>
<!-- eval_match_ctxs&#45;&gt;eval_pushout -->
<g id="edge18" class="edge">
<title>eval_match_ctxs&#45;&gt;eval_pushout</title>
<path fill="none" stroke="black" d="M318.37,-288.15C332.03,-263.6 357.53,-217.77 373.59,-188.91"/>
<polygon fill="black" stroke="black" points="376.84,-190.27 378.64,-179.82 370.72,-186.86 376.84,-190.27"/>
</g>
<!-- eval_match -->
<g id="node9" class="node">
<title>eval_match</title>
<ellipse fill="none" stroke="black" cx="223" cy="-234" rx="51.99" ry="18"/>
<text text-anchor="middle" x="223" y="-230.3" font-family="Times,serif" font-size="14.00">eval_match</text>
</g>
<!-- eval_match_ctxs&#45;&gt;eval_match -->
<g id="edge10" class="edge">
<title>eval_match_ctxs&#45;&gt;eval_match</title>
<path fill="none" stroke="black" d="M288.62,-288.41C277.13,-279.06 262.63,-267.25 250.18,-257.12"/>
<polygon fill="black" stroke="black" points="252.31,-254.35 242.35,-250.75 247.89,-259.78 252.31,-254.35"/>
</g>
<!-- eval_match_atoms&#45;&gt;eval_eval -->
<g id="edge8" class="edge">
<title>eval_match_atoms&#45;&gt;eval_eval</title>
<path fill="none" stroke="black" d="M143.87,-287.99C145.42,-269.35 149.78,-239.03 162,-216 184.48,-173.61 225.53,-135.52 253.29,-112.82"/>
<polygon fill="black" stroke="black" points="255.82,-115.28 261.44,-106.29 251.45,-109.81 255.82,-115.28"/>
</g>
<!-- eval_match_atoms&#45;&gt;eval_match -->
<g id="edge11" class="edge">
<title>eval_match_atoms&#45;&gt;eval_match</title>
<path fill="none" stroke="black" d="M161.96,-288.41C172.47,-279.21 185.69,-267.64 197.14,-257.63"/>
<polygon fill="black" stroke="black" points="199.51,-260.21 204.73,-250.99 194.9,-254.94 199.51,-260.21"/>
</g>
<!-- eval_match&#45;&gt;eval_eval -->
<g id="edge9" class="edge">
<title>eval_match&#45;&gt;eval_eval</title>
<path fill="none" stroke="black" d="M230,-216.15C240.16,-191.71 259.08,-146.17 271.08,-117.29"/>
<polygon fill="black" stroke="black" points="274.4,-118.4 275.01,-107.82 267.94,-115.72 274.4,-118.4"/>
</g>
<!-- eval_match&#45;&gt;eval_pushout -->
<g id="edge19" class="edge">
<title>eval_match&#45;&gt;eval_pushout</title>
<path fill="none" stroke="black" d="M254.81,-219.5C280.73,-208.51 317.53,-192.89 345.89,-180.86"/>
<polygon fill="black" stroke="black" points="347.32,-184.06 355.15,-176.93 344.58,-177.62 347.32,-184.06"/>
</g>
<!-- parser_syntax -->
<g id="node10" class="node">
<title>parser_syntax</title>
<ellipse fill="none" stroke="black" cx="488" cy="-450" rx="59.59" ry="18"/>
<text text-anchor="middle" x="488" y="-446.3" font-family="Times,serif" font-size="14.00">parser_syntax</text>
</g>
</g>
</svg>
