<svg version="1.1" viewBox="0.0 0.0 793.7007874015748 600.0" fill="none" stroke="none" stroke-linecap="square" stroke-miterlimit="10" xmlns:xlink="http://www.w3.org/1999/xlink" xmlns="http://www.w3.org/2000/svg"><clipPath id="g111cdcae6df_0_339.0"><path d="m0 0l793.7008 0l0 600.0l-793.7008 0l0 -600.0z" clip-rule="nonzero"/></clipPath><g clip-path="url(#g111cdcae6df_0_339.0)"><path fill="#eeeeee" d="m0 0l793.7008 0l0 600.0l-793.7008 0z" fill-rule="evenodd"/><path fill="#000000" fill-opacity="0.0" d="m29.057743 116.80577l34.362206 0l0 82.61418l-34.362206 0z" fill-rule="evenodd"/><path fill="#000000" fill-opacity="0.0" d="m115.83919 502.82507l-55.65354 0" fill-rule="evenodd"/><path stroke="#9b9b9b" stroke-width="2.0" stroke-linejoin="round" stroke-linecap="butt" d="m103.83919 502.82504l-43.65354 0" fill-rule="evenodd"/><path fill="#9b9b9b" stroke="#9b9b9b" stroke-width="2.0" stroke-linecap="butt" d="m103.83919 506.1285l9.076195 -3.3034668l-9.076195 -3.3034668z" fill-rule="evenodd"/><path fill="#000000" fill-opacity="0.0" d="m87.66881 387.24786l0 -14.708649" fill-rule="evenodd"/><path stroke="#9b9b9b" stroke-width="2.0" stroke-linejoin="round" stroke-linecap="butt" d="m87.66881 375.24786l0 -2.7086487" fill-rule="evenodd"/><path fill="#9b9b9b" stroke="#9b9b9b" stroke-width="2.0" stroke-linecap="butt" d="m84.36534 375.24786l3.3034668 9.076202l3.3034668 -9.076202z" fill-rule="evenodd"/><path fill="#000000" fill-opacity="0.0" d="m129.8701 352.07947l-21.921265 0" fill-rule="evenodd"/><path stroke="#9b9b9b" stroke-width="2.0" stroke-linejoin="round" stroke-linecap="butt" d="m117.8701 352.07947l-9.921265 0" fill-rule="evenodd"/><path fill="#9b9b9b" stroke="#9b9b9b" stroke-width="2.0" stroke-linecap="butt" d="m117.8701 355.38293l9.076195 -3.3034668l-9.076195 -3.3034668z" fill-rule="evenodd"/><path fill="#000000" fill-opacity="0.0" d="m66.93671 352.08722l-21.921265 0" fill-rule="evenodd"/><path stroke="#9b9b9b" stroke-width="2.0" stroke-linejoin="round" stroke-linecap="butt" d="m54.936707 352.08722l-9.921261 0" fill-rule="evenodd"/><path fill="#9b9b9b" stroke="#9b9b9b" stroke-width="2.0" stroke-linecap="butt" d="m54.936707 355.3907l9.076195 -3.3034668l-9.076195 -3.3034668z" fill-rule="evenodd"/><path fill="#000000" fill-opacity="0.0" d="m387.37128 337.5718c0 -15.500427 -59.251984 -30.24887 -118.50394 -31.000854c-59.251984 -0.7519531 -118.50395 12.492554 -118.50395 24.985107" fill-rule="evenodd"/><path stroke="#9b9b9b" stroke-width="2.0" stroke-linejoin="round" stroke-linecap="butt" d="m380.08853 328.0344l-0.0703125 -0.046783447c-0.17471313 -0.11401367 -0.3522644 -0.22781372 -0.5326233 -0.34140015c-0.7214966 -0.45428467 -1.4881897 -0.9050293 -2.2982483 -1.3518066c-6.4806824 -3.5741272 -15.738831 -6.8943787 -26.848572 -9.753693c-22.219482 -5.7186584 -51.84546 -9.59375 -81.471436 -9.969727c-59.251984 -0.75198364 -118.50395 12.492523 -118.50395 24.985046" fill-rule="evenodd"/><path fill="#9b9b9b" stroke="#9b9b9b" stroke-width="2.0" stroke-linecap="butt" d="m377.463 330.03925l8.13382 5.20874l-2.8827515 -9.218445z" fill-rule="evenodd"/><path fill="#000000" fill-opacity="0.0" d="m192.55873 352.0783l-21.921265 0" fill-rule="evenodd"/><path stroke="#9b9b9b" stroke-width="2.0" stroke-linejoin="round" stroke-linecap="butt" d="m180.55873 352.07834l-9.921265 0" fill-rule="evenodd"/><path fill="#9b9b9b" stroke="#9b9b9b" stroke-width="2.0" stroke-linecap="butt" d="m180.55873 355.3818l9.076187 -3.3034668l-9.076187 -3.3034668z" fill-rule="evenodd"/><path fill="#000000" fill-opacity="0.0" d="m255.99315 352.08722l-22.173218 0" fill-rule="evenodd"/><path stroke="#9b9b9b" stroke-width="2.0" stroke-linejoin="round" stroke-linecap="butt" d="m243.99315 352.08722l-10.173233 0" fill-rule="evenodd"/><path fill="#9b9b9b" stroke="#9b9b9b" stroke-width="2.0" stroke-linecap="butt" d="m243.99315 355.3907l9.076202 -3.3034668l-9.076202 -3.3034668z" fill-rule="evenodd"/><path fill="#000000" fill-opacity="0.0" d="m276.48135 387.24786l0 -14.708649" fill-rule="evenodd"/><path stroke="#9b9b9b" stroke-width="2.0" stroke-linejoin="round" stroke-linecap="butt" d="m276.48135 375.24786l0 -2.7086487" fill-rule="evenodd"/><path fill="#9b9b9b" stroke="#9b9b9b" stroke-width="2.0" stroke-linecap="butt" d="m273.1779 375.24786l3.3034668 9.076202l3.3034363 -9.076202z" fill-rule="evenodd"/><path fill="#000000" fill-opacity="0.0" d="m318.68262 352.07947l-21.921234 0" fill-rule="evenodd"/><path stroke="#9b9b9b" stroke-width="2.0" stroke-linejoin="round" stroke-linecap="butt" d="m306.68265 352.07947l-9.921265 0" fill-rule="evenodd"/><path fill="#9b9b9b" stroke="#9b9b9b" stroke-width="2.0" stroke-linecap="butt" d="m306.68265 355.38293l9.076202 -3.3034668l-9.076202 -3.3034668z" fill-rule="evenodd"/><path fill="#000000" fill-opacity="0.0" d="m381.37125 352.0783l-21.921234 0" fill-rule="evenodd"/><path stroke="#9b9b9b" stroke-width="2.0" stroke-linejoin="round" stroke-linecap="butt" d="m369.37128 352.07834l-9.921265 0" fill-rule="evenodd"/><path fill="#9b9b9b" stroke="#9b9b9b" stroke-width="2.0" stroke-linecap="butt" d="m369.37128 355.3818l9.076172 -3.3034668l-9.076172 -3.3034668z" fill-rule="evenodd"/><path fill="#000000" fill-opacity="0.0" d="m401.8586 387.2467l0 -14.708649" fill-rule="evenodd"/><path stroke="#9b9b9b" stroke-width="2.0" stroke-linejoin="round" stroke-linecap="butt" d="m401.85858 375.2467l0 -2.7086487" fill-rule="evenodd"/><path fill="#9b9b9b" stroke="#9b9b9b" stroke-width="2.0" stroke-linecap="butt" d="m398.55515 375.24673l3.3034363 9.076172l3.3034668 -9.076172z" fill-rule="evenodd"/><path fill="#000000" fill-opacity="0.0" d="m444.05988 352.0783l-21.921234 0" fill-rule="evenodd"/><path stroke="#9b9b9b" stroke-width="2.0" stroke-linejoin="round" stroke-linecap="butt" d="m432.05988 352.07834l-9.921265 0" fill-rule="evenodd"/><path fill="#9b9b9b" stroke="#9b9b9b" stroke-width="2.0" stroke-linecap="butt" d="m432.05988 355.3818l9.076202 -3.3034668l-9.076202 -3.3034668z" fill-rule="evenodd"/><path fill="#9b9b9b" d="m67.18062 352.0603l0 0c0 -11.315338 9.172874 -20.48819 20.48819 -20.48819l0 0c5.4338074 0 10.645058 2.1585693 14.487343 6.0008545c3.8422775 3.8422546 6.000847 9.053528 6.000847 14.487335l0 0c0 11.315308 -9.172874 20.48819 -20.48819 20.48819l0 0c-11.315315 0 -20.48819 -9.172882 -20.48819 -20.48819z" fill-rule="evenodd"/><path fill="#eeeeee" d="m83.65792 357.9203l0 -11.78125l1.046875 0l6.140625 9.59375l0 -9.59375l1.265625 0l0 11.78125l-1.046875 0l-6.140625 -9.578125l0 9.578125l-1.265625 0z" fill-rule="nonzero"/><path fill="#9b9b9b" d="m67.18062 407.73605l0 0c0 -11.315308 9.172874 -20.48819 20.48819 -20.48819l0 0c5.4338074 0 10.645058 2.1585693 14.487343 6.0008545c3.8422775 3.8422852 6.000847 9.053528 6.000847 14.487335l0 0c0 11.315338 -9.172874 20.48819 -20.48819 20.48819l0 0c-11.315315 0 -20.48819 -9.172852 -20.48819 -20.48819z" fill-rule="evenodd"/><path fill="#eeeeee" d="m87.897804 413.59607l0 -10.640625l-2.421875 0.65625l0 -0.8125l2.53125 -1.09375l1.171875 0l0 11.890625l-1.28125 0z" fill-rule="nonzero"/><path fill="#9b9b9b" d="m129.86925 352.05914l0 0c0 -11.315338 9.172882 -20.48819 20.48819 -20.48819l0 0c5.4338074 0 10.64505 2.1585693 14.487335 6.0008545c3.8422852 3.8422546 6.0008545 9.053528 6.0008545 14.487335l0 0c0 11.315308 -9.172882 20.48819 -20.48819 20.48819l0 0c-11.315308 0 -20.48819 -9.172882 -20.48819 -20.48819z" fill-rule="evenodd"/><path fill="#eeeeee" d="m147.0558 357.91913l0 -9.40625q0 -0.6875 0.1875 -1.140625q0.203125 -0.46875 0.53125 -0.71875q0.34375 -0.265625 0.765625 -0.390625q0.421875 -0.125 0.828125 -0.125q0.703125 0.015625 1.53125 0.03125q0.828125 0.015625 1.6875 0.046875q0.875 0.015625 1.71875 0.09375l0 1.0l-4.625 0q-0.640625 0 -1.0 0.359375q-0.34375 0.34375 -0.34375 1.03125l0 3.0625l5.265625 0.078125l0 0.96875l-5.265625 0.078125l0 5.03125l-1.28125 0z" fill-rule="nonzero"/><path fill="#9b9b9b" d="m192.55788 352.05914l0 0c0 -11.315338 9.172867 -20.48819 20.48819 -20.48819l0 0c5.4338074 0 10.64505 2.1585693 14.487335 6.0008545c3.8422852 3.8422546 6.0008545 9.053528 6.0008545 14.487335l0 0c0 11.315308 -9.172882 20.48819 -20.48819 20.48819l0 0c-11.315323 0 -20.48819 -9.172882 -20.48819 -20.48819z" fill-rule="evenodd"/><path fill="#eeeeee" d="m216.04643 357.91913l-7.421875 -11.78125l1.390625 0l7.421875 11.78125l-1.390625 0zm-7.375 0l3.84375 -6.15625l0.640625 1.078125l-3.09375 5.078125l-1.390625 0zm4.90625 -5.453125l-0.609375 -1.15625l3.109375 -5.171875l1.390625 0l-3.890625 6.328125z" fill-rule="nonzero"/><path fill="#9b9b9b" d="m255.99315 352.0603l0 0c0 -11.315338 9.172867 -20.48819 20.488205 -20.48819l0 0c5.4338074 0 10.64505 2.1585693 14.487335 6.0008545c3.8422852 3.8422546 6.0008545 9.053528 6.0008545 14.487335l0 0c0 11.315308 -9.172882 20.48819 -20.48819 20.48819l0 0c-11.315338 0 -20.488205 -9.172882 -20.488205 -20.48819z" fill-rule="evenodd"/><path fill="#eeeeee" d="m272.47046 357.9203l0 -11.78125l1.046875 0l6.140625 9.59375l0 -9.59375l1.265625 0l0 11.78125l-1.046875 0l-6.140625 -9.578125l0 9.578125l-1.265625 0z" fill-rule="nonzero"/><path fill="#9b9b9b" d="m255.99315 407.73605l0 0c0 -11.315308 9.172867 -20.48819 20.488205 -20.48819l0 0c5.4338074 0 10.64505 2.1585693 14.487335 6.0008545c3.8422852 3.8422852 6.0008545 9.053528 6.0008545 14.487335l0 0c0 11.315338 -9.172882 20.48819 -20.48819 20.48819l0 0c-11.315338 0 -20.488205 -9.172852 -20.488205 -20.48819z" fill-rule="evenodd"/><path fill="#eeeeee" d="m272.5967 413.59607l0 -1.046875l4.359375 -4.171875q0.671875 -0.625 1.0625 -1.15625q0.390625 -0.546875 0.5625 -1.09375q0.1875 -0.5625 0.1875 -1.21875q0 -0.578125 -0.21875 -1.015625q-0.21875 -0.453125 -0.765625 -0.703125q-0.546875 -0.265625 -1.5625 -0.265625l-3.203125 0l0 -0.96875q0.734375 -0.09375 1.625 -0.15625q0.890625 -0.078125 1.84375 -0.078125q1.34375 0 2.109375 0.390625q0.78125 0.375 1.09375 1.0625q0.328125 0.671875 0.328125 1.59375q0 0.8125 -0.21875 1.5q-0.203125 0.6875 -0.671875 1.34375q-0.46875 0.65625 -1.203125 1.359375l-3.59375 3.453125l6.125 0l0 1.171875l-7.859375 0z" fill-rule="nonzero"/><path fill="#9b9b9b" d="m318.6818 352.05914l0 0c0 -11.315338 9.172852 -20.48819 20.48819 -20.48819l0 0c5.4338074 0 10.64505 2.1585693 14.487335 6.0008545c3.8422852 3.8422546 6.0008545 9.053528 6.0008545 14.487335l0 0c0 11.315308 -9.172882 20.48819 -20.48819 20.48819l0 0c-11.315338 0 -20.48819 -9.172882 -20.48819 -20.48819z" fill-rule="evenodd"/><path fill="#eeeeee" d="m342.17035 357.91913l-7.421875 -11.78125l1.390625 0l7.421875 11.78125l-1.390625 0zm-7.375 0l3.84375 -6.15625l0.640625 1.078125l-3.09375 5.078125l-1.390625 0zm4.90625 -5.453125l-0.609375 -1.15625l3.109375 -5.171875l1.390625 0l-3.890625 6.328125z" fill-rule="nonzero"/><path fill="#9b9b9b" d="m381.37042 352.05914l0 0c0 -11.315338 9.172852 -20.48819 20.48819 -20.48819l0 0c5.4338074 0 10.64505 2.1585693 14.487335 6.0008545c3.8422852 3.8422546 6.0008545 9.053528 6.0008545 14.487335l0 0c0 11.315308 -9.172882 20.48819 -20.48819 20.48819l0 0c-11.315338 0 -20.48819 -9.172882 -20.48819 -20.48819z" fill-rule="evenodd"/><path fill="#eeeeee" d="m397.84772 357.91913l0 -11.78125l1.046875 0l6.140625 9.59375l0 -9.59375l1.265625 0l0 11.78125l-1.046875 0l-6.140625 -9.578125l0 9.578125l-1.265625 0z" fill-rule="nonzero"/><path fill="#9b9b9b" d="m381.37042 407.7349l0 0c0 -11.315308 9.172852 -20.48819 20.48819 -20.48819l0 0c5.4338074 0 10.64505 2.1585693 14.487335 6.0008545c3.8422852 3.8422852 6.0008545 9.053528 6.0008545 14.487335l0 0c0 11.315338 -9.172882 20.48819 -20.48819 20.48819l0 0c-11.315338 0 -20.48819 -9.172852 -20.48819 -20.48819z" fill-rule="evenodd"/><path fill="#eeeeee" d="m402.1317 413.68866q-1.25 0 -2.359375 -0.0625q-1.09375 -0.046875 -1.90625 -0.140625l0 -0.984375l3.859375 0q0.6875 0 1.21875 -0.140625q0.546875 -0.140625 0.859375 -0.53125q0.3125 -0.390625 0.3125 -1.109375l0 -0.78125q0 -0.625 -0.3125 -1.0q-0.3125 -0.375 -0.78125 -0.53125q-0.453125 -0.15625 -0.953125 -0.171875l-3.015625 -0.109375l0 -0.9375l2.96875 -0.125q0.875 -0.03125 1.40625 -0.375q0.53125 -0.34375 0.53125 -1.15625l0 -0.78125q0 -0.890625 -0.59375 -1.359375q-0.578125 -0.46875 -1.734375 -0.46875l-3.359375 0l0 -0.96875q0.734375 -0.109375 1.6875 -0.171875q0.953125 -0.0625 2.125 -0.0625q1.0625 0.015625 1.75 0.359375q0.703125 0.34375 1.03125 0.96875q0.34375 0.609375 0.34375 1.4375l0 1.015625q0 0.546875 -0.171875 0.9375q-0.15625 0.390625 -0.421875 0.65625q-0.265625 0.25 -0.5625 0.390625q-0.296875 0.125 -0.53125 0.171875q0.265625 0.0625 0.578125 0.234375q0.328125 0.171875 0.625 0.46875q0.296875 0.28125 0.484375 0.71875q0.1875 0.421875 0.1875 1.015625l0 0.8125q0 1.359375 -0.859375 2.078125q-0.84375 0.703125 -2.40625 0.703125z" fill-rule="nonzero"/><path fill="#9b9b9b" d="m109.83833 488.33774l0 0c0 -11.315338 9.172874 -20.48819 20.48819 -20.48819l0 0c5.4338074 0 10.645065 2.1585693 14.487335 6.000824c3.8422852 3.8422852 6.0008545 9.053558 6.0008545 14.487366l0 0c0 11.315308 -9.172867 20.48819 -20.48819 20.48819l0 0c-11.315315 0 -20.48819 -9.172882 -20.48819 -20.48819z" fill-rule="evenodd"/><path fill="#eeeeee" d="m130.77226 494.29147q-1.0625 0 -1.84375 -0.234375q-0.78125 -0.25 -1.296875 -0.875q-0.515625 -0.625 -0.765625 -1.8125q-0.25 -1.1875 -0.25 -3.09375q0 -1.796875 0.25 -2.953125q0.265625 -1.15625 0.78125 -1.8125q0.53125 -0.65625 1.328125 -0.921875q0.796875 -0.265625 1.890625 -0.265625q0.5 0 1.09375 0.0625q0.609375 0.0625 1.203125 0.15625q0.59375 0.09375 1.078125 0.21875l0 0.9375q-0.28125 -0.046875 -0.78125 -0.09375q-0.484375 -0.046875 -1.125 -0.078125q-0.625 -0.046875 -1.28125 -0.046875q-0.84375 0 -1.453125 0.1875q-0.609375 0.1875 -0.984375 0.71875q-0.375 0.515625 -0.5625 1.46875q-0.171875 0.9375 -0.171875 2.4375q0 1.515625 0.171875 2.484375q0.171875 0.96875 0.53125 1.484375q0.375 0.515625 0.96875 0.703125q0.59375 0.1875 1.46875 0.1875q1.203125 0 1.96875 -0.0625q0.765625 -0.0625 1.25 -0.140625l0 0.96875q-0.484375 0.109375 -1.078125 0.203125q-0.578125 0.078125 -1.1875 0.125q-0.609375 0.046875 -1.203125 0.046875z" fill-rule="nonzero"/><path fill="#9b9b9b" d="m109.83833 551.0812l0 0c0 -11.315308 9.172874 -20.48822 20.48819 -20.48822l0 0c5.4338074 0 10.645065 2.1585693 14.487335 6.0008545c3.8422852 3.8422852 6.0008545 9.053528 6.0008545 14.487366l0 0c0 11.315308 -9.172867 20.48816 -20.48819 20.48816l0 0c-11.315315 0 -20.48819 -9.172852 -20.48819 -20.48816z" fill-rule="evenodd"/><path fill="#eeeeee" d="m130.55553 556.94116l0 -10.640625l-2.421875 0.65625l0 -0.8125l2.53125 -1.09375l1.171875 0l0 11.890625l-1.28125 0z" fill-rule="nonzero"/><path fill="#000000" fill-opacity="0.0" d="m130.32652 530.59296l0 -21.763763" fill-rule="evenodd"/><path stroke="#9b9b9b" stroke-width="2.0" stroke-linejoin="round" stroke-linecap="butt" d="m130.32652 518.59296l0 -9.763763" fill-rule="evenodd"/><path fill="#9b9b9b" stroke="#9b9b9b" stroke-width="2.0" stroke-linecap="butt" d="m127.02306 518.59296l3.3034592 9.076233l3.3034668 -9.076233z" fill-rule="evenodd"/><path fill="#000000" fill-opacity="0.0" d="m199.73088 502.8239l-54.92914 0" fill-rule="evenodd"/><path stroke="#9b9b9b" stroke-width="2.0" stroke-linejoin="round" stroke-linecap="butt" d="m187.73087 502.8239l-42.929123 0" fill-rule="evenodd"/><path fill="#9b9b9b" stroke="#9b9b9b" stroke-width="2.0" stroke-linecap="butt" d="m187.73087 506.12738l9.076202 -3.3034668l-9.076202 -3.3034668z" fill-rule="evenodd"/><path fill="#9b9b9b" d="m193.73003 488.33658l0 0c0 -11.315338 9.172882 -20.48819 20.48819 -20.48819l0 0c5.4338074 0 10.64505 2.1585693 14.487335 6.000824c3.8422852 3.8422852 6.0008545 9.053558 6.0008545 14.487366l0 0c0 11.315308 -9.172882 20.48819 -20.48819 20.48819l0 0c-11.315308 0 -20.48819 -9.172882 -20.48819 -20.48819z" fill-rule="evenodd"/><path fill="#eeeeee" d="m214.66396 494.2903q-1.0625 0 -1.84375 -0.234375q-0.78125 -0.25 -1.296875 -0.875q-0.515625 -0.625 -0.765625 -1.8125q-0.25 -1.1875 -0.25 -3.09375q0 -1.796875 0.25 -2.953125q0.265625 -1.15625 0.78125 -1.8125q0.53125 -0.65625 1.328125 -0.921875q0.796875 -0.265625 1.890625 -0.265625q0.5 0 1.09375 0.0625q0.609375 0.0625 1.203125 0.15625q0.59375 0.09375 1.078125 0.21875l0 0.9375q-0.28125 -0.046875 -0.78125 -0.09375q-0.484375 -0.046875 -1.125 -0.078125q-0.625 -0.046875 -1.28125 -0.046875q-0.84375 0 -1.453125 0.1875q-0.609375 0.1875 -0.984375 0.71875q-0.375 0.515625 -0.5625 1.46875q-0.171875 0.9375 -0.171875 2.4375q0 1.515625 0.171875 2.484375q0.171875 0.96875 0.53125 1.484375q0.375 0.515625 0.96875 0.703125q0.59375 0.1875 1.46875 0.1875q1.203125 0 1.96875 -0.0625q0.765625 -0.0625 1.25 -0.140625l0 0.96875q-0.484375 0.109375 -1.078125 0.203125q-0.578125 0.078125 -1.1875 0.125q-0.609375 0.046875 -1.203125 0.046875z" fill-rule="nonzero"/><path fill="#9b9b9b" d="m193.73003 551.08l0 0c0 -11.315308 9.172882 -20.48822 20.48819 -20.48822l0 0c5.4338074 0 10.64505 2.1585693 14.487335 6.0008545c3.8422852 3.8422852 6.0008545 9.053528 6.0008545 14.487366l0 0c0 11.315308 -9.172882 20.48816 -20.48819 20.48816l0 0c-11.315308 0 -20.48819 -9.172852 -20.48819 -20.48816z" fill-rule="evenodd"/><path fill="#eeeeee" d="m210.33357 556.94l0 -1.046875l4.359375 -4.171875q0.671875 -0.625 1.0625 -1.15625q0.390625 -0.546875 0.5625 -1.09375q0.1875 -0.5625 0.1875 -1.21875q0 -0.578125 -0.21875 -1.015625q-0.21875 -0.453125 -0.765625 -0.703125q-0.546875 -0.265625 -1.5625 -0.265625l-3.203125 0l0 -0.96875q0.734375 -0.09375 1.625 -0.15625q0.890625 -0.078125 1.84375 -0.078125q1.34375 0 2.109375 0.390625q0.78125 0.375 1.09375 1.0625q0.328125 0.671875 0.328125 1.59375q0 0.8125 -0.21875 1.5q-0.203125 0.6875 -0.671875 1.34375q-0.46875 0.65625 -1.203125 1.359375l-3.59375 3.453125l6.125 0l0 1.171875l-7.859375 0z" fill-rule="nonzero"/><path fill="#000000" fill-opacity="0.0" d="m214.21822 530.5918l0 -21.763763" fill-rule="evenodd"/><path stroke="#9b9b9b" stroke-width="2.0" stroke-linejoin="round" stroke-linecap="butt" d="m214.21822 518.5918l0 -9.763763" fill-rule="evenodd"/><path fill="#9b9b9b" stroke="#9b9b9b" stroke-width="2.0" stroke-linecap="butt" d="m210.91475 518.5918l3.3034668 9.076233l3.3034668 -9.076233z" fill-rule="evenodd"/><path fill="#000000" fill-opacity="0.0" d="m283.62256 502.8239l-54.929123 0" fill-rule="evenodd"/><path stroke="#9b9b9b" stroke-width="2.0" stroke-linejoin="round" stroke-linecap="butt" d="m271.62256 502.8239l-42.92914 0" fill-rule="evenodd"/><path fill="#9b9b9b" stroke="#9b9b9b" stroke-width="2.0" stroke-linecap="butt" d="m271.62256 506.12738l9.076202 -3.3034668l-9.076202 -3.3034668z" fill-rule="evenodd"/><path fill="#9b9b9b" d="m277.6217 488.33658l0 0c0 -11.315338 9.172882 -20.48819 20.48819 -20.48819l0 0c5.4338074 0 10.645081 2.1585693 14.487335 6.000824c3.8422852 3.8422852 6.0008545 9.053558 6.0008545 14.487366l0 0c0 11.315308 -9.172852 20.48819 -20.48819 20.48819l0 0c-11.315308 0 -20.48819 -9.172882 -20.48819 -20.48819z" fill-rule="evenodd"/><path fill="#eeeeee" d="m298.55563 494.2903q-1.0625 0 -1.84375 -0.234375q-0.78125 -0.25 -1.296875 -0.875q-0.515625 -0.625 -0.765625 -1.8125q-0.25 -1.1875 -0.25 -3.09375q0 -1.796875 0.25 -2.953125q0.265625 -1.15625 0.78125 -1.8125q0.53125 -0.65625 1.328125 -0.921875q0.796875 -0.265625 1.890625 -0.265625q0.5 0 1.09375 0.0625q0.609375 0.0625 1.203125 0.15625q0.59375 0.09375 1.078125 0.21875l0 0.9375q-0.28125 -0.046875 -0.78125 -0.09375q-0.484375 -0.046875 -1.125 -0.078125q-0.625 -0.046875 -1.28125 -0.046875q-0.84375 0 -1.453125 0.1875q-0.609375 0.1875 -0.984375 0.71875q-0.375 0.515625 -0.5625 1.46875q-0.171875 0.9375 -0.171875 2.4375q0 1.515625 0.171875 2.484375q0.171875 0.96875 0.53125 1.484375q0.375 0.515625 0.96875 0.703125q0.59375 0.1875 1.46875 0.1875q1.203125 0 1.96875 -0.0625q0.765625 -0.0625 1.25 -0.140625l0 0.96875q-0.484375 0.109375 -1.078125 0.203125q-0.578125 0.078125 -1.1875 0.125q-0.609375 0.046875 -1.203125 0.046875z" fill-rule="nonzero"/><path fill="#9b9b9b" d="m277.6217 551.08l0 0c0 -11.315308 9.172882 -20.48822 20.48819 -20.48822l0 0c5.4338074 0 10.645081 2.1585693 14.487335 6.0008545c3.8422852 3.8422852 6.0008545 9.053528 6.0008545 14.487366l0 0c0 11.315308 -9.172852 20.48816 -20.48819 20.48816l0 0c-11.315308 0 -20.48819 -9.172852 -20.48819 -20.48816z" fill-rule="evenodd"/><path fill="#eeeeee" d="m298.38303 557.03375q-1.25 0 -2.359375 -0.0625q-1.09375 -0.046875 -1.90625 -0.140625l0 -0.984375l3.859375 0q0.6875 0 1.21875 -0.140625q0.546875 -0.140625 0.859375 -0.53125q0.3125 -0.390625 0.3125 -1.109375l0 -0.78125q0 -0.625 -0.3125 -1.0q-0.3125 -0.375 -0.78125 -0.53125q-0.453125 -0.15625 -0.953125 -0.171875l-3.015625 -0.109375l0 -0.9375l2.96875 -0.125q0.875 -0.03125 1.40625 -0.375q0.53125 -0.34375 0.53125 -1.15625l0 -0.78125q0 -0.890625 -0.59375 -1.359375q-0.578125 -0.46875 -1.734375 -0.46875l-3.359375 0l0 -0.96875q0.734375 -0.109375 1.6875 -0.171875q0.953125 -0.0625 2.125 -0.0625q1.0625 0.015625 1.75 0.359375q0.703125 0.34375 1.03125 0.96875q0.34375 0.609375 0.34375 1.4375l0 1.015625q0 0.546875 -0.171875 0.9375q-0.15625 0.390625 -0.421875 0.65625q-0.265625 0.25 -0.5625 0.390625q-0.296875 0.125 -0.53125 0.171875q0.265625 0.0625 0.578125 0.234375q0.328125 0.171875 0.625 0.46875q0.296875 0.28125 0.484375 0.71875q0.1875 0.421875 0.1875 1.015625l0 0.8125q0 1.359375 -0.859375 2.078125q-0.84375 0.703125 -2.40625 0.703125z" fill-rule="nonzero"/><path fill="#000000" fill-opacity="0.0" d="m298.1099 530.5918l0 -21.763763" fill-rule="evenodd"/><path stroke="#9b9b9b" stroke-width="2.0" stroke-linejoin="round" stroke-linecap="butt" d="m298.1099 518.5918l0 -9.763763" fill-rule="evenodd"/><path fill="#9b9b9b" stroke="#9b9b9b" stroke-width="2.0" stroke-linecap="butt" d="m294.80646 518.5918l3.3034363 9.076233l3.3034668 -9.076233z" fill-rule="evenodd"/><path fill="#000000" fill-opacity="0.0" d="m367.51425 502.82043l-54.92914 0" fill-rule="evenodd"/><path stroke="#9b9b9b" stroke-width="2.0" stroke-linejoin="round" stroke-linecap="butt" d="m355.51428 502.8204l-42.92917 0" fill-rule="evenodd"/><path fill="#9b9b9b" stroke="#9b9b9b" stroke-width="2.0" stroke-linecap="butt" d="m355.51428 506.12387l9.076172 -3.3034668l-9.076172 -3.3034668z" fill-rule="evenodd"/><path fill="#000000" fill-opacity="0.0" d="m144.81386 473.85037l54.92914 0" fill-rule="evenodd"/><path stroke="#9b9b9b" stroke-width="2.0" stroke-linejoin="round" stroke-linecap="butt" d="m156.81386 473.8504l42.929123 0" fill-rule="evenodd"/><path fill="#9b9b9b" stroke="#9b9b9b" stroke-width="2.0" stroke-linecap="butt" d="m156.81386 470.54694l-9.076187 3.3034668l9.076187 3.3034668z" fill-rule="evenodd"/><path fill="#000000" fill-opacity="0.0" d="m228.70555 473.8492l54.929123 0" fill-rule="evenodd"/><path stroke="#9b9b9b" stroke-width="2.0" stroke-linejoin="round" stroke-linecap="butt" d="m240.70555 473.84924l42.929123 0" fill-rule="evenodd"/><path fill="#9b9b9b" stroke="#9b9b9b" stroke-width="2.0" stroke-linecap="butt" d="m240.70555 470.54578l-9.076202 3.3034668l9.076202 3.3034668z" fill-rule="evenodd"/><path fill="#000000" fill-opacity="0.0" d="m60.177837 473.85733l55.653545 0" fill-rule="evenodd"/><path stroke="#9b9b9b" stroke-width="2.0" stroke-linejoin="round" stroke-linecap="butt" d="m72.17783 473.85733l43.65355 0" fill-rule="evenodd"/><path fill="#9b9b9b" stroke="#9b9b9b" stroke-width="2.0" stroke-linecap="butt" d="m72.17783 470.55386l-9.076191 3.3034668l9.076191 3.3034668z" fill-rule="evenodd"/><path fill="#000000" fill-opacity="0.0" d="m25.202312 488.34467l0 0c0 -11.315308 9.172874 -20.48819 20.48819 -20.48819l0 0c5.4338036 0 10.645054 2.1585999 14.487335 6.0008545c3.8422813 3.8422852 6.0008507 9.053558 6.0008507 14.487335l0 0c0 11.315338 -9.172871 20.48819 -20.488186 20.48819l0 0c-11.315315 0 -20.48819 -9.172852 -20.48819 -20.48819z" fill-rule="evenodd"/><path fill="#000000" fill-opacity="0.0" d="m312.59723 473.8492l54.92914 0" fill-rule="evenodd"/><path stroke="#9b9b9b" stroke-width="2.0" stroke-linejoin="round" stroke-linecap="butt" d="m324.59723 473.84924l42.92914 0" fill-rule="evenodd"/><path fill="#9b9b9b" stroke="#9b9b9b" stroke-width="2.0" stroke-linecap="butt" d="m324.59723 470.54578l-9.076202 3.3034668l9.076202 3.3034668z" fill-rule="evenodd"/><path fill="#000000" fill-opacity="0.0" d="m361.5134 488.3331l0 0c0 -11.315338 9.172882 -20.48819 20.48819 -20.48819l0 0c5.4338074 0 10.645081 2.1585693 14.487335 6.0008545c3.8422852 3.8422546 6.0008545 9.053528 6.0008545 14.487335l0 0c0 11.315308 -9.172852 20.48819 -20.48819 20.48819l0 0c-11.315308 0 -20.48819 -9.172882 -20.48819 -20.48819z" fill-rule="evenodd"/><path fill="#9b9b9b" d="m579.3063 68.815155l0 0c0 -11.315311 9.172852 -20.488186 20.48816 -20.488186l0 0c5.433777 0 10.645081 2.1585693 14.487366 6.0008507c3.8422241 3.8422813 6.0008545 9.053532 6.0008545 14.487335l0 0c0 11.315315 -9.172913 20.48819 -20.48822 20.48819l0 0c-11.315308 0 -20.48816 -9.172874 -20.48816 -20.48819z" fill-rule="evenodd"/><path fill="#eeeeee" d="m595.78357 74.675156l0 -11.781246l1.046875 0l6.140625 9.593746l0 -9.593746l1.265625 0l0 11.781246l-1.046875 0l-6.140625 -9.578125l0 9.578125l-1.265625 0z" fill-rule="nonzero"/><path fill="#9b9b9b" d="m509.0688 122.62384l0 0c0 -11.315315 9.172852 -20.48819 20.48816 -20.48819l0 0c5.433838 0 10.645081 2.1585693 14.487366 6.0008545c3.8422852 3.8422775 6.0008545 9.053528 6.0008545 14.487335l0 0c0 11.315308 -9.172913 20.48819 -20.48822 20.48819l0 0c-11.315308 0 -20.48816 -9.172882 -20.48816 -20.48819z" fill-rule="evenodd"/><path fill="#eeeeee" d="m525.5461 128.48384l0 -11.78125l1.046875 0l6.140625 9.59375l0 -9.59375l1.265625 0l0 11.78125l-1.046875 0l-6.140625 -9.578125l0 9.578125l-1.265625 0z" fill-rule="nonzero"/><path fill="#9b9b9b" d="m658.96265 122.62384l0 0c0 -11.315315 9.172913 -20.48819 20.48822 -20.48819l0 0c5.433777 0 10.64502 2.1585693 14.487305 6.0008545c3.8422852 3.8422775 6.0008545 9.053528 6.0008545 14.487335l0 0c0 11.315308 -9.172852 20.48819 -20.48816 20.48819l0 0c-11.315308 0 -20.48822 -9.172882 -20.48822 -20.48819z" fill-rule="evenodd"/><path fill="#eeeeee" d="m675.43994 128.48384l0 -11.78125l1.046875 0l6.140625 9.59375l0 -9.59375l1.265625 0l0 11.78125l-1.046875 0l-6.140625 -9.578125l0 9.578125l-1.265625 0z" fill-rule="nonzero"/><path fill="#000000" fill-opacity="0.0" d="m529.55695 102.13565l55.748047 -18.834648" fill-rule="evenodd"/><path stroke="#9b9b9b" stroke-width="2.0" stroke-linejoin="round" stroke-linecap="butt" d="m540.92566 98.2947l44.379333 -14.9936905" fill-rule="evenodd"/><path fill="#9b9b9b" stroke="#9b9b9b" stroke-width="2.0" stroke-linecap="butt" d="m539.8683 95.16503l-7.541321 6.034775l9.656067 0.22457123z" fill-rule="evenodd"/><path fill="#9b9b9b" d="m466.9838 186.2526l0 0c0 -11.315308 9.172882 -20.48819 20.48819 -20.48819l0 0c5.4338074 0 10.645081 2.1585693 14.487335 6.0008545c3.8422852 3.8422852 6.0008545 9.053528 6.0008545 14.487335l0 0c0 11.315323 -9.172852 20.48819 -20.48819 20.48819l0 0c-11.315308 0 -20.48819 -9.172867 -20.48819 -20.48819z" fill-rule="evenodd"/><path fill="#eeeeee" d="m486.80972 192.1126q-0.6875 0 -1.21875 -0.21875q-0.53125 -0.21875 -0.84375 -0.734375q-0.296875 -0.515625 -0.296875 -1.421875l0 -9.40625l1.28125 0l0 9.234375q0 0.578125 0.1875 0.875q0.1875 0.296875 0.5 0.40625q0.328125 0.09375 0.671875 0.09375l4.21875 0l0 1.171875l-4.5 0z" fill-rule="nonzero"/><path fill="#000000" fill-opacity="0.0" d="m487.472 165.7644l27.590576 -28.661407" fill-rule="evenodd"/><path stroke="#9b9b9b" stroke-width="2.0" stroke-linejoin="round" stroke-linecap="butt" d="m495.79422 157.11916l19.268341 -20.016174" fill-rule="evenodd"/><path fill="#9b9b9b" stroke="#9b9b9b" stroke-width="2.0" stroke-linecap="butt" d="m493.41428 154.82814l-3.9145813 8.829849l8.674469 -4.247818z" fill-rule="evenodd"/><path fill="#9b9b9b" d="m549.20483 186.2526l0 0c0 -11.315308 9.172852 -20.48819 20.48816 -20.48819l0 0c5.433777 0 10.645081 2.1585693 14.487366 6.0008545c3.8422241 3.8422852 6.0008545 9.053528 6.0008545 14.487335l0 0c0 11.315323 -9.172913 20.48819 -20.48822 20.48819l0 0c-11.315308 0 -20.48816 -9.172867 -20.48816 -20.48819z" fill-rule="evenodd"/><path fill="#eeeeee" d="m565.6821 192.1126l0 -11.78125l1.046875 0l6.140625 9.59375l0 -9.59375l1.265625 0l0 11.78125l-1.046875 0l-6.140625 -9.578125l0 9.578125l-1.265625 0z" fill-rule="nonzero"/><path fill="#000000" fill-opacity="0.0" d="m569.693 165.7644l-25.637817 -28.661407" fill-rule="evenodd"/><path stroke="#9b9b9b" stroke-width="2.0" stroke-linejoin="round" stroke-linecap="butt" d="m561.6926 156.82048l-17.637451 -19.717499" fill-rule="evenodd"/><path fill="#9b9b9b" stroke="#9b9b9b" stroke-width="2.0" stroke-linecap="butt" d="m559.23047 159.0229l8.513245 4.562317l-3.5889282 -8.967163z" fill-rule="evenodd"/><path fill="#9b9b9b" d="m624.5912 186.2526l0 0c0 -11.315308 9.172852 -20.48819 20.48816 -20.48819l0 0c5.433777 0 10.645081 2.1585693 14.487366 6.0008545c3.8422241 3.8422852 6.0007935 9.053528 6.0007935 14.487335l0 0c0 11.315323 -9.172852 20.48819 -20.48816 20.48819l0 0c-11.315308 0 -20.48816 -9.172867 -20.48816 -20.48819z" fill-rule="evenodd"/><path fill="#eeeeee" d="m644.41705 192.1126q-0.6875 0 -1.21875 -0.21875q-0.53125 -0.21875 -0.84375 -0.734375q-0.296875 -0.515625 -0.296875 -1.421875l0 -9.40625l1.28125 0l0 9.234375q0 0.578125 0.1875 0.875q0.1875 0.296875 0.5 0.40625q0.328125 0.09375 0.671875 0.09375l4.21875 0l0 1.171875l-4.5 0z" fill-rule="nonzero"/><path fill="#000000" fill-opacity="0.0" d="m645.07935 165.7644l19.874023 -28.661407" fill-rule="evenodd"/><path stroke="#9b9b9b" stroke-width="2.0" stroke-linejoin="round" stroke-linecap="butt" d="m651.9172 155.90317l13.036194 -18.800186" fill-rule="evenodd"/><path fill="#9b9b9b" stroke="#9b9b9b" stroke-width="2.0" stroke-linecap="butt" d="m649.2025 154.0208l-2.4570923 9.340912l7.8864746 -5.5761566z" fill-rule="evenodd"/><path fill="#9b9b9b" d="m699.9775 186.2526l0 0c0 -11.315308 9.172913 -20.48819 20.48822 -20.48819l0 0c5.433777 0 10.645081 2.1585693 14.487305 6.0008545c3.8422852 3.8422852 6.0008545 9.053528 6.0008545 14.487335l0 0c0 11.315323 -9.172852 20.48819 -20.48816 20.48819l0 0c-11.315308 0 -20.48822 -9.172867 -20.48822 -20.48819z" fill-rule="evenodd"/><path fill="#eeeeee" d="m719.8034 192.1126q-0.6875 0 -1.21875 -0.21875q-0.53125 -0.21875 -0.84375 -0.734375q-0.296875 -0.515625 -0.296875 -1.421875l0 -9.40625l1.28125 0l0 9.234375q0 0.578125 0.1875 0.875q0.1875 0.296875 0.5 0.40625q0.328125 0.09375 0.671875 0.09375l4.21875 0l0 1.171875l-4.5 0z" fill-rule="nonzero"/><path fill="#000000" fill-opacity="0.0" d="m720.4657 165.7644l-26.519714 -28.661407" fill-rule="evenodd"/><path stroke="#9b9b9b" stroke-width="2.0" stroke-linejoin="round" stroke-linecap="butt" d="m712.3159 156.95642l-18.369873 -19.85344" fill-rule="evenodd"/><path fill="#9b9b9b" stroke="#9b9b9b" stroke-width="2.0" stroke-linecap="butt" d="m709.8912 159.19997l8.588867 4.4183655l-3.73938 -8.905457z" fill-rule="evenodd"/><path fill="#000000" fill-opacity="0.0" d="m679.45087 102.13565l-65.165405 -18.834648" fill-rule="evenodd"/><path stroke="#9b9b9b" stroke-width="2.0" stroke-linejoin="round" stroke-linecap="butt" d="m667.92267 98.803696l-53.637207 -15.502686" fill-rule="evenodd"/><path fill="#9b9b9b" stroke="#9b9b9b" stroke-width="2.0" stroke-linecap="butt" d="m667.00543 101.97726l9.636536 -0.65343475l-7.802002 -5.693695z" fill-rule="evenodd"/><path fill="#000000" fill-opacity="0.0" d="m599.79443 48.32697l0 -30.834646" fill-rule="evenodd"/><path stroke="#9b9b9b" stroke-width="2.0" stroke-linejoin="round" stroke-linecap="butt" d="m599.79443 36.326973l0 -18.83465" fill-rule="evenodd"/><path fill="#9b9b9b" stroke="#9b9b9b" stroke-width="2.0" stroke-linecap="butt" d="m596.49097 36.326973l3.3034668 9.076195l3.3034668 -9.076195z" fill-rule="evenodd"/><path fill="#9b9b9b" d="m507.39926 261.0266l0 0c0 -11.315308 9.172882 -20.48819 20.48819 -20.48819l0 0c5.433777 0 10.64502 2.1585693 14.487305 6.0008545c3.8422852 3.8422852 6.0008545 9.053528 6.0008545 14.487335l0 0c0 11.315308 -9.172852 20.48819 -20.48816 20.48819l0 0c-11.315308 0 -20.48819 -9.172882 -20.48819 -20.48819z" fill-rule="evenodd"/><path fill="#eeeeee" d="m527.22516 266.88663q-0.6875 0 -1.21875 -0.21875q-0.53125 -0.21875 -0.84375 -0.734375q-0.296875 -0.515625 -0.296875 -1.421875l0 -9.406265l1.28125 0l0 9.23439q0 0.578125 0.1875 0.875q0.1875 0.296875 0.5 0.40625q0.328125 0.09375 0.671875 0.09375l4.21875 0l0 1.171875l-4.5 0z" fill-rule="nonzero"/><path fill="#000000" fill-opacity="0.0" d="m527.88745 240.53842l27.307068 -39.81102" fill-rule="evenodd"/><path stroke="#9b9b9b" stroke-width="2.0" stroke-linejoin="round" stroke-linecap="butt" d="m534.6752 230.64261l20.519348 -29.915207" fill-rule="evenodd"/><path fill="#9b9b9b" stroke="#9b9b9b" stroke-width="2.0" stroke-linecap="butt" d="m531.9509 228.77403l-2.409668 9.3532715l7.8580933 -5.616104z" fill-rule="evenodd"/><path fill="#9b9b9b" d="m586.2313 261.0266l0 0c0 -11.315308 9.172852 -20.48819 20.48822 -20.48819l0 0c5.433777 0 10.64502 2.1585693 14.487305 6.0008545c3.8422852 3.8422852 6.0008545 9.053528 6.0008545 14.487335l0 0c0 11.315308 -9.172852 20.48819 -20.48816 20.48819l0 0c-11.315369 0 -20.48822 -9.172882 -20.48822 -20.48819z" fill-rule="evenodd"/><path fill="#eeeeee" d="m606.05725 266.88663q-0.6875 0 -1.21875 -0.21875q-0.53125 -0.21875 -0.84375 -0.734375q-0.296875 -0.515625 -0.296875 -1.421875l0 -9.406265l1.28125 0l0 9.23439q0 0.578125 0.1875 0.875q0.1875 0.296875 0.5 0.40625q0.328125 0.09375 0.671875 0.09375l4.21875 0l0 1.171875l-4.5 0z" fill-rule="nonzero"/><path fill="#000000" fill-opacity="0.0" d="m606.71954 240.53842l-22.551208 -39.81102" fill-rule="evenodd"/><path stroke="#9b9b9b" stroke-width="2.0" stroke-linejoin="round" stroke-linecap="butt" d="m600.80505 230.09721l-16.636719 -29.369812" fill-rule="evenodd"/><path fill="#9b9b9b" stroke="#9b9b9b" stroke-width="2.0" stroke-linecap="butt" d="m597.9307 231.7254l7.3477173 6.2690125l-1.59906 -9.525391z" fill-rule="evenodd"/><path fill="#000000" fill-opacity="0.0" d="m527.88745 240.53842l-25.921265 -39.81102" fill-rule="evenodd"/><path stroke="#9b9b9b" stroke-width="2.0" stroke-linejoin="round" stroke-linecap="butt" d="m521.3397 230.48221l-19.373566 -29.754807" fill-rule="evenodd"/><path fill="#9b9b9b" stroke="#9b9b9b" stroke-width="2.0" stroke-linecap="butt" d="m518.57135 232.2847l7.720703 5.803528l-2.18396 -9.408539z" fill-rule="evenodd"/><path fill="#000000" fill-opacity="0.0" d="m586.2313 261.0266l-37.858276 0" fill-rule="evenodd"/><path stroke="#9b9b9b" stroke-width="2.0" stroke-linejoin="round" stroke-linecap="butt" d="m574.2313 261.0266l-25.858276 0" fill-rule="evenodd"/><path fill="#9b9b9b" stroke="#9b9b9b" stroke-width="2.0" stroke-linecap="butt" d="m574.2313 264.33008l9.076233 -3.3034668l-9.076233 -3.3034668z" fill-rule="evenodd"/><path fill="#000000" fill-opacity="0.0" d="m630.592 200.73993l-9.385803 45.795273" fill-rule="evenodd"/><path stroke="#9b9b9b" stroke-width="2.0" stroke-linejoin="round" stroke-linecap="butt" d="m628.1827 212.49557l-6.9765015 34.039627" fill-rule="evenodd"/><path fill="#9b9b9b" stroke="#9b9b9b" stroke-width="2.0" stroke-linecap="butt" d="m631.4189 213.15883l-1.4138794 -9.554626l-5.0585327 8.228104z" fill-rule="evenodd"/><path fill="#000000" fill-opacity="0.0" d="m487.472 165.7644l-32.75589 -47.685036" fill-rule="evenodd"/><path stroke="#9b9b9b" stroke-width="2.0" stroke-linejoin="round" stroke-linecap="butt" d="m480.67752 155.87323l-25.961426 -37.79386" fill-rule="evenodd"/><path fill="#9b9b9b" stroke="#9b9b9b" stroke-width="2.0" stroke-linecap="butt" d="m477.9546 157.74367l7.8619385 5.6107483l-2.4160767 -9.351624z" fill-rule="evenodd"/><path fill="#000000" fill-opacity="0.0" d="m699.9775 186.2526l-34.42517 0" fill-rule="evenodd"/><path stroke="#9b9b9b" stroke-width="2.0" stroke-linejoin="round" stroke-linecap="butt" d="m687.97754 186.25261l-22.425232 0" fill-rule="evenodd"/><path fill="#9b9b9b" stroke="#9b9b9b" stroke-width="2.0" stroke-linecap="butt" d="m687.97754 189.55608l9.076172 -3.3034668l-9.076172 -3.3034668z" fill-rule="evenodd"/><path fill="#000000" fill-opacity="0.0" d="m747.7404 126.851875l-12.787415 44.913383" fill-rule="evenodd"/><path stroke="#9b9b9b" stroke-width="2.0" stroke-linejoin="round" stroke-linecap="butt" d="m744.45447 138.3932l-9.501465 33.372055" fill-rule="evenodd"/><path fill="#9b9b9b" stroke="#9b9b9b" stroke-width="2.0" stroke-linecap="butt" d="m747.63165 139.29779l-0.69189453 -9.633865l-5.6625366 7.824692z" fill-rule="evenodd"/><path fill="#9b9b9b" d="m90.09311 199.01784l0 0c0 -11.315323 9.172874 -20.48819 20.488182 -20.48819l0 0c5.4338074 0 10.645058 2.1585693 14.487343 6.0008545c3.8422852 3.84227 6.0008545 9.053528 6.0008545 14.487335l0 0c0 11.315308 -9.172882 20.48819 -20.488197 20.48819l0 0c-11.315308 0 -20.488182 -9.172882 -20.488182 -20.48819z" fill-rule="evenodd"/><path fill="#eeeeee" d="m111.02703 204.97159q-1.0625 0 -1.84375 -0.234375q-0.78125 -0.25 -1.296875 -0.875q-0.515625 -0.625 -0.765625 -1.8125q-0.25 -1.1875 -0.25 -3.09375q0 -1.796875 0.25 -2.953125q0.265625 -1.15625 0.78125 -1.8125q0.53125 -0.65625 1.328125 -0.921875q0.796875 -0.265625 1.890625 -0.265625q0.5 0 1.09375 0.0625q0.609375 0.0625 1.203125 0.15625q0.59375 0.09375 1.078125 0.21875l0 0.9375q-0.28125 -0.046875 -0.78125 -0.09375q-0.484375 -0.046875 -1.125 -0.078125q-0.625 -0.046875 -1.28125 -0.046875q-0.84375 0 -1.453125 0.1875q-0.609375 0.1875 -0.984375 0.71875q-0.375 0.515625 -0.5625 1.46875q-0.171875 0.9375 -0.171875 2.4375q0 1.515625 0.171875 2.484375q0.171875 0.96875 0.53125 1.484375q0.375 0.515625 0.96875 0.703125q0.59375 0.1875 1.46875 0.1875q1.203125 0 1.96875 -0.0625q0.765625 -0.0625 1.25 -0.140625l0 0.96875q-0.484375 0.109375 -1.078125 0.203125q-0.578125 0.078125 -1.1875 0.125q-0.609375 0.046875 -1.203125 0.046875z" fill-rule="nonzero"/><path fill="#9b9b9b" d="m90.09311 254.6936l0 0c0 -11.315308 9.172874 -20.48819 20.488182 -20.48819l0 0c5.4338074 0 10.645058 2.1585693 14.487343 6.0008545c3.8422852 3.8422852 6.0008545 9.053528 6.0008545 14.487335l0 0c0 11.315308 -9.172882 20.48819 -20.488197 20.48819l0 0c-11.315308 0 -20.488182 -9.172882 -20.488182 -20.48819z" fill-rule="evenodd"/><path fill="#eeeeee" d="m110.81029 260.55362l0 -10.64064l-2.421875 0.65625l0 -0.8125l2.53125 -1.09375l1.171875 0l0 11.89064l-1.28125 0z" fill-rule="nonzero"/><path fill="#000000" fill-opacity="0.0" d="m90.09311 199.04475l-22.173233 0" fill-rule="evenodd"/><path stroke="#9b9b9b" stroke-width="2.0" stroke-linejoin="round" stroke-linecap="butt" d="m78.0931 199.04477l-10.173225 0" fill-rule="evenodd"/><path fill="#9b9b9b" stroke="#9b9b9b" stroke-width="2.0" stroke-linecap="butt" d="m78.0931 202.34822l9.076195 -3.3034515l-9.076195 -3.3034668z" fill-rule="evenodd"/><path fill="#000000" fill-opacity="0.0" d="m110.58129 234.20541l0 -14.708664" fill-rule="evenodd"/><path stroke="#9b9b9b" stroke-width="2.0" stroke-linejoin="round" stroke-linecap="butt" d="m110.58129 222.20543l0 -2.708664" fill-rule="evenodd"/><path fill="#9b9b9b" stroke="#9b9b9b" stroke-width="2.0" stroke-linecap="butt" d="m107.277824 222.20543l3.3034668 9.076187l3.3034668 -9.076187z" fill-rule="evenodd"/><path fill="#000000" fill-opacity="0.0" d="m152.78258 199.03702l-21.92125 0" fill-rule="evenodd"/><path stroke="#9b9b9b" stroke-width="2.0" stroke-linejoin="round" stroke-linecap="butt" d="m140.78258 199.03703l-9.921249 0" fill-rule="evenodd"/><path fill="#9b9b9b" stroke="#9b9b9b" stroke-width="2.0" stroke-linecap="butt" d="m140.78258 202.3405l9.076202 -3.3034668l-9.076202 -3.3034668z" fill-rule="evenodd"/><path fill="#000000" fill-opacity="0.0" d="m89.84919 199.04475l-21.921265 0" fill-rule="evenodd"/><path stroke="#9b9b9b" stroke-width="2.0" stroke-linejoin="round" stroke-linecap="butt" d="m77.84918 199.04477l-9.921249 0" fill-rule="evenodd"/><path fill="#9b9b9b" stroke="#9b9b9b" stroke-width="2.0" stroke-linecap="butt" d="m77.84918 202.34822l9.076195 -3.3034515l-9.076195 -3.3034668z" fill-rule="evenodd"/><path fill="#9b9b9b" d="m152.78174 199.01668l0 0c0 -11.315323 9.172867 -20.48819 20.48819 -20.48819l0 0c5.4338074 0 10.64505 2.1585693 14.487335 6.0008545c3.84227 3.84227 6.0008545 9.053528 6.0008545 14.487335l0 0c0 11.315308 -9.172882 20.48819 -20.48819 20.48819l0 0c-11.315323 0 -20.48819 -9.172882 -20.48819 -20.48819z" fill-rule="evenodd"/><path fill="#eeeeee" d="m173.71567 204.97043q-1.0625 0 -1.84375 -0.234375q-0.78125 -0.25 -1.296875 -0.875q-0.515625 -0.625 -0.765625 -1.8125q-0.25 -1.1875 -0.25 -3.09375q0 -1.796875 0.25 -2.953125q0.265625 -1.15625 0.78125 -1.8125q0.53125 -0.65625 1.328125 -0.921875q0.796875 -0.265625 1.890625 -0.265625q0.5 0 1.09375 0.0625q0.609375 0.0625 1.203125 0.15625q0.59375 0.09375 1.078125 0.21875l0 0.9375q-0.28125 -0.046875 -0.78125 -0.09375q-0.484375 -0.046875 -1.125 -0.078125q-0.625 -0.046875 -1.28125 -0.046875q-0.84375 0 -1.453125 0.1875q-0.609375 0.1875 -0.984375 0.71875q-0.375 0.515625 -0.5625 1.46875q-0.171875 0.9375 -0.171875 2.4375q0 1.515625 0.171875 2.484375q0.171875 0.96875 0.53125 1.484375q0.375 0.515625 0.96875 0.703125q0.59375 0.1875 1.46875 0.1875q1.203125 0 1.96875 -0.0625q0.765625 -0.0625 1.25 -0.140625l0 0.96875q-0.484375 0.109375 -1.078125 0.203125q-0.578125 0.078125 -1.1875 0.125q-0.609375 0.046875 -1.203125 0.046875z" fill-rule="nonzero"/><path fill="#9b9b9b" d="m152.78174 254.69244l0 0c0 -11.315308 9.172867 -20.48819 20.48819 -20.48819l0 0c5.4338074 0 10.64505 2.1585693 14.487335 6.0008545c3.84227 3.8422852 6.0008545 9.053528 6.0008545 14.487335l0 0c0 11.315308 -9.172882 20.48819 -20.48819 20.48819l0 0c-11.315323 0 -20.48819 -9.172882 -20.48819 -20.48819z" fill-rule="evenodd"/><path fill="#eeeeee" d="m169.38528 260.55246l0 -1.046875l4.359375 -4.1718903q0.671875 -0.625 1.0625 -1.15625q0.390625 -0.546875 0.5625 -1.09375q0.1875 -0.5625 0.1875 -1.21875q0 -0.578125 -0.21875 -1.015625q-0.21875 -0.453125 -0.765625 -0.703125q-0.546875 -0.265625 -1.5625 -0.265625l-3.203125 0l0 -0.96875q0.734375 -0.09375 1.625 -0.15625q0.890625 -0.078125 1.84375 -0.078125q1.34375 0 2.109375 0.390625q0.78125 0.375 1.09375 1.0625q0.328125 0.671875 0.328125 1.59375q0 0.8125 -0.21875 1.5q-0.203125 0.6875 -0.671875 1.34375q-0.46875 0.65625 -1.203125 1.359375l-3.59375 3.4531403l6.125 0l0 1.171875l-7.859375 0z" fill-rule="nonzero"/><path fill="#000000" fill-opacity="0.0" d="m173.26993 234.20425l0 -14.708664" fill-rule="evenodd"/><path stroke="#9b9b9b" stroke-width="2.0" stroke-linejoin="round" stroke-linecap="butt" d="m173.26993 222.20425l0 -2.708664" fill-rule="evenodd"/><path fill="#9b9b9b" stroke="#9b9b9b" stroke-width="2.0" stroke-linecap="butt" d="m169.96646 222.20425l3.3034668 9.076187l3.3034668 -9.076187z" fill-rule="evenodd"/><path fill="#000000" fill-opacity="0.0" d="m215.4712 199.03586l-21.921265 0" fill-rule="evenodd"/><path stroke="#9b9b9b" stroke-width="2.0" stroke-linejoin="round" stroke-linecap="butt" d="m203.4712 199.03586l-9.921249 0" fill-rule="evenodd"/><path fill="#9b9b9b" stroke="#9b9b9b" stroke-width="2.0" stroke-linecap="butt" d="m203.4712 202.33932l9.076202 -3.3034668l-9.076202 -3.3034668z" fill-rule="evenodd"/><path fill="#9b9b9b" d="m215.47037 199.01668l0 0c0 -11.315323 9.172867 -20.48819 20.48819 -20.48819l0 0c5.433792 0 10.64505 2.1585693 14.487335 6.0008545c3.84227 3.84227 6.0008545 9.053528 6.0008545 14.487335l0 0c0 11.315308 -9.172882 20.48819 -20.48819 20.48819l0 0c-11.315323 0 -20.48819 -9.172882 -20.48819 -20.48819z" fill-rule="evenodd"/><path fill="#eeeeee" d="m236.4043 204.97043q-1.0625 0 -1.84375 -0.234375q-0.78125 -0.25 -1.296875 -0.875q-0.515625 -0.625 -0.765625 -1.8125q-0.25 -1.1875 -0.25 -3.09375q0 -1.796875 0.25 -2.953125q0.265625 -1.15625 0.78125 -1.8125q0.53125 -0.65625 1.328125 -0.921875q0.796875 -0.265625 1.890625 -0.265625q0.5 0 1.09375 0.0625q0.609375 0.0625 1.203125 0.15625q0.59375 0.09375 1.078125 0.21875l0 0.9375q-0.28125 -0.046875 -0.78125 -0.09375q-0.484375 -0.046875 -1.125 -0.078125q-0.625 -0.046875 -1.28125 -0.046875q-0.84375 0 -1.453125 0.1875q-0.609375 0.1875 -0.984375 0.71875q-0.375 0.515625 -0.5625 1.46875q-0.171875 0.9375 -0.171875 2.4375q0 1.515625 0.171875 2.484375q0.171875 0.96875 0.53125 1.484375q0.375 0.515625 0.96875 0.703125q0.59375 0.1875 1.46875 0.1875q1.203125 0 1.96875 -0.0625q0.765625 -0.0625 1.25 -0.140625l0 0.96875q-0.484375 0.109375 -1.078125 0.203125q-0.578125 0.078125 -1.1875 0.125q-0.609375 0.046875 -1.203125 0.046875z" fill-rule="nonzero"/><path fill="#9b9b9b" d="m215.47037 254.69244l0 0c0 -11.315308 9.172867 -20.48819 20.48819 -20.48819l0 0c5.433792 0 10.64505 2.1585693 14.487335 6.0008545c3.84227 3.8422852 6.0008545 9.053528 6.0008545 14.487335l0 0c0 11.315308 -9.172882 20.48819 -20.48819 20.48819l0 0c-11.315323 0 -20.48819 -9.172882 -20.48819 -20.48819z" fill-rule="evenodd"/><path fill="#eeeeee" d="m236.23167 260.6462q-1.25 0 -2.359375 -0.0625q-1.09375 -0.046875 -1.90625 -0.140625l0 -0.984375l3.859375 0q0.6875 0 1.21875 -0.140625q0.546875 -0.140625 0.859375 -0.53125q0.3125 -0.390625 0.3125 -1.109375l0 -0.78125q0 -0.625 -0.3125 -1.0000153q-0.3125 -0.375 -0.78125 -0.53125q-0.453125 -0.15625 -0.953125 -0.171875l-3.015625 -0.109375l0 -0.9375l2.96875 -0.125q0.875 -0.03125 1.40625 -0.375q0.53125 -0.34375 0.53125 -1.15625l0 -0.78125q0 -0.890625 -0.59375 -1.359375q-0.578125 -0.46875 -1.734375 -0.46875l-3.359375 0l0 -0.96875q0.734375 -0.109375 1.6875 -0.171875q0.953125 -0.0625 2.125 -0.0625q1.0625 0.015625 1.75 0.359375q0.703125 0.34375 1.03125 0.96875q0.34375 0.609375 0.34375 1.4375l0 1.015625q0 0.546875 -0.171875 0.9375q-0.15625 0.390625 -0.421875 0.65625q-0.265625 0.25 -0.5625 0.390625q-0.296875 0.125 -0.53125 0.171875q0.265625 0.0625 0.578125 0.234375q0.328125 0.171875 0.625 0.46875q0.296875 0.28125 0.484375 0.71876526q0.1875 0.421875 0.1875 1.015625l0 0.8125q0 1.359375 -0.859375 2.078125q-0.84375 0.703125 -2.40625 0.703125z" fill-rule="nonzero"/><path fill="#000000" fill-opacity="0.0" d="m235.95856 234.20425l0 -14.708664" fill-rule="evenodd"/><path stroke="#9b9b9b" stroke-width="2.0" stroke-linejoin="round" stroke-linecap="butt" d="m235.95856 222.20425l0 -2.708664" fill-rule="evenodd"/><path fill="#9b9b9b" stroke="#9b9b9b" stroke-width="2.0" stroke-linecap="butt" d="m232.65509 222.20425l3.3034668 9.076187l3.3034668 -9.076187z" fill-rule="evenodd"/><path fill="#000000" fill-opacity="0.0" d="m278.15985 199.03586l-21.921265 0" fill-rule="evenodd"/><path stroke="#9b9b9b" stroke-width="2.0" stroke-linejoin="round" stroke-linecap="butt" d="m266.15985 199.03586l-9.921265 0" fill-rule="evenodd"/><path fill="#9b9b9b" stroke="#9b9b9b" stroke-width="2.0" stroke-linecap="butt" d="m266.15985 202.33932l9.076172 -3.3034668l-9.076172 -3.3034668z" fill-rule="evenodd"/><path fill="#9b9b9b" d="m278.159 199.01668l0 0c0 -11.315323 9.172882 -20.48819 20.48819 -20.48819l0 0c5.4338074 0 10.64505 2.1585693 14.487335 6.0008545c3.8422852 3.84227 6.0008545 9.053528 6.0008545 14.487335l0 0c0 11.315308 -9.172882 20.48819 -20.48819 20.48819l0 0c-11.315308 0 -20.48819 -9.172882 -20.48819 -20.48819z" fill-rule="evenodd"/><path fill="#eeeeee" d="m294.6363 204.87668l0 -11.78125l1.046875 0l6.140625 9.59375l0 -9.59375l1.265625 0l0 11.78125l-1.046875 0l-6.140625 -9.578125l0 9.578125l-1.265625 0z" fill-rule="nonzero"/><path fill="#000000" fill-opacity="0.0" d="m284.15985 184.52934c0 -13.212601 -110.36221 -26.425201 -220.72443 -26.425201" fill-rule="evenodd"/><path stroke="#9b9b9b" stroke-width="2.0" stroke-linejoin="round" stroke-linecap="butt" d="m274.3768 177.58008l-0.2666626 -0.09649658c-0.28201294 -0.09988403 -0.56954956 -0.199646 -0.86257935 -0.2992401c-2.3441162 -0.7967529 -5.038513 -1.5838318 -8.056213 -2.3580017c-12.070877 -3.0967102 -29.314972 -5.986969 -50.00789 -8.464325c-41.38582 -4.954727 -96.566925 -8.257874 -151.74803 -8.257874" fill-rule="evenodd"/><path fill="#9b9b9b" stroke="#9b9b9b" stroke-width="2.0" stroke-linecap="butt" d="m272.46375 180.27322l9.3124695 2.5629272l-5.486328 -7.949234z" fill-rule="evenodd"/><path fill="#9b9b9b" d="m569.0508 360.8453l0 0c0 -11.315308 9.172913 -20.48819 20.48822 -20.48819l0 0c5.433777 0 10.645081 2.1585693 14.487305 6.0008545c3.8422852 3.8422852 6.0008545 9.053528 6.0008545 14.487335l0 0c0 11.315308 -9.172852 20.48819 -20.48816 20.48819l0 0c-11.315308 0 -20.48822 -9.172882 -20.48822 -20.48819z" fill-rule="evenodd"/><path fill="#eeeeee" d="m585.52814 366.70532l0 -11.78125l1.046875 0l6.140625 9.59375l0 -9.59375l1.265625 0l0 11.78125l-1.046875 0l-6.140625 -9.578125l0 9.578125l-1.265625 0z" fill-rule="nonzero"/><path fill="#9b9b9b" d="m498.81335 421.72168l0 0c0 -11.315338 9.172852 -20.48819 20.48816 -20.48819l0 0c5.433838 0 10.645081 2.1585693 14.487366 6.0008545c3.8422852 3.8422546 6.0008545 9.053528 6.0008545 14.487335l0 0c0 11.315308 -9.172913 20.48819 -20.48822 20.48819l0 0c-11.315308 0 -20.48816 -9.172882 -20.48816 -20.48819z" fill-rule="evenodd"/><path fill="#eeeeee" d="m515.29065 427.58167l0 -11.78125l1.046875 0l6.140625 9.59375l0 -9.59375l1.265625 0l0 11.78125l-1.046875 0l-6.140625 -9.578125l0 9.578125l-1.265625 0z" fill-rule="nonzero"/><path fill="#9b9b9b" d="m656.7072 421.72168l0 0c0 -11.315338 9.172913 -20.48819 20.48822 -20.48819l0 0c5.433777 0 10.64502 2.1585693 14.487305 6.0008545c3.8422852 3.8422546 6.0008545 9.053528 6.0008545 14.487335l0 0c0 11.315308 -9.172852 20.48819 -20.48816 20.48819l0 0c-11.315308 0 -20.48822 -9.172882 -20.48822 -20.48819z" fill-rule="evenodd"/><path fill="#eeeeee" d="m673.1845 427.58167l0 -11.78125l1.046875 0l6.140625 9.59375l0 -9.59375l1.265625 0l0 11.78125l-1.046875 0l-6.140625 -9.578125l0 9.578125l-1.265625 0z" fill-rule="nonzero"/><path fill="#000000" fill-opacity="0.0" d="m519.3015 401.2335l55.748047 -25.88977" fill-rule="evenodd"/><path stroke="#9b9b9b" stroke-width="2.0" stroke-linejoin="round" stroke-linecap="butt" d="m530.1852 396.17905l44.86438 -20.835327" fill-rule="evenodd"/><path fill="#9b9b9b" stroke="#9b9b9b" stroke-width="2.0" stroke-linecap="butt" d="m528.7937 393.18292l-6.840332 6.819031l9.62323 -0.8267517z" fill-rule="evenodd"/><path fill="#9b9b9b" d="m456.72836 485.35043l0 0c0 -11.315338 9.172882 -20.48819 20.48819 -20.48819l0 0c5.4338074 0 10.64505 2.1585693 14.487335 6.0008545c3.8422852 3.8422546 6.0008545 9.053528 6.0008545 14.487335l0 0c0 11.315308 -9.172882 20.48819 -20.48819 20.48819l0 0c-11.315308 0 -20.48819 -9.172882 -20.48819 -20.48819z" fill-rule="evenodd"/><path fill="#eeeeee" d="m476.5543 491.21042q-0.6875 0 -1.21875 -0.21875q-0.53125 -0.21875 -0.84375 -0.734375q-0.296875 -0.515625 -0.296875 -1.421875l0 -9.40625l1.28125 0l0 9.234375q0 0.578125 0.1875 0.875q0.1875 0.296875 0.5 0.40625q0.328125 0.09375 0.671875 0.09375l4.21875 0l0 1.171875l-4.5 0z" fill-rule="nonzero"/><path fill="#000000" fill-opacity="0.0" d="m477.21655 464.86224l27.590546 -28.661438" fill-rule="evenodd"/><path stroke="#9b9b9b" stroke-width="2.0" stroke-linejoin="round" stroke-linecap="butt" d="m485.5388 456.21698l19.268341 -20.016144" fill-rule="evenodd"/><path fill="#9b9b9b" stroke="#9b9b9b" stroke-width="2.0" stroke-linecap="butt" d="m483.15887 453.92596l-3.9145813 8.8298645l8.674469 -4.2478027z" fill-rule="evenodd"/><path fill="#9b9b9b" d="m538.94934 485.35043l0 0c0 -11.315338 9.172913 -20.48819 20.48822 -20.48819l0 0c5.433777 0 10.645081 2.1585693 14.487366 6.0008545c3.8422241 3.8422546 6.0007935 9.053528 6.0007935 14.487335l0 0c0 11.315308 -9.172852 20.48819 -20.48816 20.48819l0 0c-11.315308 0 -20.48822 -9.172882 -20.48822 -20.48819z" fill-rule="evenodd"/><path fill="#eeeeee" d="m555.4267 491.21042l0 -11.78125l1.046875 0l6.140625 9.59375l0 -9.59375l1.265625 0l0 11.78125l-1.046875 0l-6.140625 -9.578125l0 9.578125l-1.265625 0z" fill-rule="nonzero"/><path fill="#000000" fill-opacity="0.0" d="m559.43756 464.86224l-25.637817 -28.661438" fill-rule="evenodd"/><path stroke="#9b9b9b" stroke-width="2.0" stroke-linejoin="round" stroke-linecap="butt" d="m551.4372 455.9183l-17.637451 -19.717468" fill-rule="evenodd"/><path fill="#9b9b9b" stroke="#9b9b9b" stroke-width="2.0" stroke-linecap="butt" d="m548.975 458.12073l8.513245 4.562317l-3.5889282 -8.967133z" fill-rule="evenodd"/><path fill="#9b9b9b" d="m630.3357 485.35043l0 0c0 -11.315338 9.172913 -20.48819 20.48822 -20.48819l0 0c5.433777 0 10.645081 2.1585693 14.487305 6.0008545c3.8422852 3.8422546 6.0008545 9.053528 6.0008545 14.487335l0 0c0 11.315308 -9.172852 20.48819 -20.48816 20.48819l0 0c-11.315308 0 -20.48822 -9.172882 -20.48822 -20.48819z" fill-rule="evenodd"/><path fill="#eeeeee" d="m650.1616 491.21042q-0.6875 0 -1.21875 -0.21875q-0.53125 -0.21875 -0.84375 -0.734375q-0.296875 -0.515625 -0.296875 -1.421875l0 -9.40625l1.28125 0l0 9.234375q0 0.578125 0.1875 0.875q0.1875 0.296875 0.5 0.40625q0.328125 0.09375 0.671875 0.09375l4.21875 0l0 1.171875l-4.5 0z" fill-rule="nonzero"/><path fill="#000000" fill-opacity="0.0" d="m650.8239 464.86224l11.874023 -28.661438" fill-rule="evenodd"/><path stroke="#9b9b9b" stroke-width="2.0" stroke-linejoin="round" stroke-linecap="butt" d="m655.4168 453.77597l7.281128 -17.575134" fill-rule="evenodd"/><path fill="#9b9b9b" stroke="#9b9b9b" stroke-width="2.0" stroke-linecap="butt" d="m652.36487 452.5116l-0.42193604 9.649475l6.525757 -7.1207275z" fill-rule="evenodd"/><path fill="#9b9b9b" d="m689.72205 485.35043l0 0c0 -11.315338 9.172913 -20.48819 20.48822 -20.48819l0 0c5.433777 0 10.645081 2.1585693 14.487305 6.0008545c3.8422852 3.8422546 6.0008545 9.053528 6.0008545 14.487335l0 0c0 11.315308 -9.172852 20.48819 -20.48816 20.48819l0 0c-11.315308 0 -20.48822 -9.172882 -20.48822 -20.48819z" fill-rule="evenodd"/><path fill="#eeeeee" d="m709.548 491.21042q-0.6875 0 -1.21875 -0.21875q-0.53125 -0.21875 -0.84375 -0.734375q-0.296875 -0.515625 -0.296875 -1.421875l0 -9.40625l1.28125 0l0 9.234375q0 0.578125 0.1875 0.875q0.1875 0.296875 0.5 0.40625q0.328125 0.09375 0.671875 0.09375l4.21875 0l0 1.171875l-4.5 0z" fill-rule="nonzero"/><path fill="#000000" fill-opacity="0.0" d="m710.21027 464.86224l-18.519714 -28.661438" fill-rule="evenodd"/><path stroke="#9b9b9b" stroke-width="2.0" stroke-linejoin="round" stroke-linecap="butt" d="m703.6977 454.78326l-12.007141 -18.582428" fill-rule="evenodd"/><path fill="#9b9b9b" stroke="#9b9b9b" stroke-width="2.0" stroke-linecap="butt" d="m700.923 456.57608l7.7004395 5.830414l-2.151123 -9.416077z" fill-rule="evenodd"/><path fill="#000000" fill-opacity="0.0" d="m677.19543 401.2335l-73.165405 -25.88977" fill-rule="evenodd"/><path stroke="#9b9b9b" stroke-width="2.0" stroke-linejoin="round" stroke-linecap="butt" d="m665.8828 397.23047l-61.852722 -21.88675" fill-rule="evenodd"/><path fill="#9b9b9b" stroke="#9b9b9b" stroke-width="2.0" stroke-linecap="butt" d="m664.78076 400.3447l9.658325 -0.08654785l-7.4543457 -6.1419373z" fill-rule="evenodd"/><path fill="#000000" fill-opacity="0.0" d="m589.539 340.35712l0 -30.834625" fill-rule="evenodd"/><path stroke="#9b9b9b" stroke-width="2.0" stroke-linejoin="round" stroke-linecap="butt" d="m589.539 328.35712l0 -18.834656" fill-rule="evenodd"/><path fill="#9b9b9b" stroke="#9b9b9b" stroke-width="2.0" stroke-linecap="butt" d="m586.23553 328.35712l3.3034668 9.076202l3.3034668 -9.076202z" fill-rule="evenodd"/><path fill="#9b9b9b" d="m497.1438 553.05676l0 0c0 -11.315308 9.172882 -20.48816 20.48822 -20.48816l0 0c5.433777 0 10.64502 2.1585693 14.487305 6.0008545c3.8422852 3.8422852 6.0008545 9.053528 6.0008545 14.487305l0 0c0 11.315308 -9.172852 20.48822 -20.48816 20.48822l0 0c-11.315338 0 -20.48822 -9.172913 -20.48822 -20.48822z" fill-rule="evenodd"/><path fill="#eeeeee" d="m516.9697 558.91675q-0.6875 0 -1.21875 -0.21875q-0.53125 -0.21875 -0.84375 -0.734375q-0.296875 -0.515625 -0.296875 -1.421875l0 -9.40625l1.28125 0l0 9.234375q0 0.578125 0.1875 0.875q0.1875 0.296875 0.5 0.40625q0.328125 0.09375 0.671875 0.09375l4.21875 0l0 1.171875l-4.5 0z" fill-rule="nonzero"/><path fill="#000000" fill-opacity="0.0" d="m517.632 532.5686l27.307068 -32.724426" fill-rule="evenodd"/><path stroke="#9b9b9b" stroke-width="2.0" stroke-linejoin="round" stroke-linecap="butt" d="m525.3203 523.355l19.618774 -23.510834" fill-rule="evenodd"/><path fill="#9b9b9b" stroke="#9b9b9b" stroke-width="2.0" stroke-linecap="butt" d="m522.78394 521.2385l-3.2786865 9.085144l8.351501 -4.852173z" fill-rule="evenodd"/><path fill="#9b9b9b" d="m575.9759 553.05676l0 0c0 -11.315308 9.172852 -20.48816 20.48822 -20.48816l0 0c5.433777 0 10.64502 2.1585693 14.487305 6.0008545c3.8422852 3.8422852 6.0008545 9.053528 6.0008545 14.487305l0 0c0 11.315308 -9.172852 20.48822 -20.48816 20.48822l0 0c-11.315369 0 -20.48822 -9.172913 -20.48822 -20.48822z" fill-rule="evenodd"/><path fill="#eeeeee" d="m595.8018 558.91675q-0.6875 0 -1.21875 -0.21875q-0.53125 -0.21875 -0.84375 -0.734375q-0.296875 -0.515625 -0.296875 -1.421875l0 -9.40625l1.28125 0l0 9.234375q0 0.578125 0.1875 0.875q0.1875 0.296875 0.5 0.40625q0.328125 0.09375 0.671875 0.09375l4.21875 0l0 1.171875l-4.5 0z" fill-rule="nonzero"/><path fill="#000000" fill-opacity="0.0" d="m596.4641 532.5686l-22.551208 -32.724426" fill-rule="evenodd"/><path stroke="#9b9b9b" stroke-width="2.0" stroke-linejoin="round" stroke-linecap="butt" d="m589.65485 522.68756l-15.741943 -22.843414" fill-rule="evenodd"/><path fill="#9b9b9b" stroke="#9b9b9b" stroke-width="2.0" stroke-linecap="butt" d="m586.9347 524.5621l7.8703003 5.598999l-2.4300537 -9.348022z" fill-rule="evenodd"/><path fill="#000000" fill-opacity="0.0" d="m737.485 425.9497l-12.787415 44.91339" fill-rule="evenodd"/><path stroke="#9b9b9b" stroke-width="2.0" stroke-linejoin="round" stroke-linecap="butt" d="m734.19904 437.49106l-9.501465 33.37204" fill-rule="evenodd"/><path fill="#9b9b9b" stroke="#9b9b9b" stroke-width="2.0" stroke-linecap="butt" d="m737.3762 438.39566l-0.6918335 -9.633881l-5.6625366 7.8246765z" fill-rule="evenodd"/><path fill="#000000" fill-opacity="0.0" d="m519.3015 442.20987c0 21.574799 -10.803131 43.149597 -21.606293 43.149597" fill-rule="evenodd"/><path stroke="#9b9b9b" stroke-width="2.0" stroke-linejoin="round" stroke-linecap="butt" d="m518.24023 454.1628l-0.0068969727 0.040649414c-0.22943115 1.3009949 -0.49316406 2.5862427 -0.7885742 3.8503723c-1.1815796 5.05661 -2.8695679 9.776093 -4.8952026 13.821381c-4.0511475 8.090546 -9.452728 13.484253 -14.854309 13.484253" fill-rule="evenodd"/><path fill="#9b9b9b" stroke="#9b9b9b" stroke-width="2.0" stroke-linecap="butt" d="m521.53076 454.455l-2.487793 -9.332794l-4.0932617 8.748474z" fill-rule="evenodd"/><path fill="#000000" fill-opacity="0.0" d="m559.43756 505.83862c0 23.606262 -10.661438 47.212585 -21.322815 47.212585" fill-rule="evenodd"/><path stroke="#9b9b9b" stroke-width="2.0" stroke-linejoin="round" stroke-linecap="butt" d="m558.5586 517.8064l-0.011779785 0.084350586c-0.052368164 0.3579712 -0.10681152 0.7149658 -0.16345215 1.0708008c-0.22644043 1.423523 -0.48669434 2.829773 -0.7782593 4.2129517c-1.1660767 5.532715 -2.8319092 10.696594 -4.8309326 15.122803c-3.9980469 8.852356 -9.328735 14.753906 -14.659485 14.753906" fill-rule="evenodd"/><path fill="#9b9b9b" stroke="#9b9b9b" stroke-width="2.0" stroke-linecap="butt" d="m561.8532 518.04834l-2.6298218 -9.293762l-3.9593506 8.8098755z" fill-rule="evenodd"/><path fill="#000000" fill-opacity="0.0" d="m589.539 381.3335c0 37.808716 5.354309 55.963867 10.708679 75.6174c5.354309 19.653564 10.708618 40.80548 10.708618 81.61093" fill-rule="evenodd"/><path stroke="#9b9b9b" stroke-width="2.0" stroke-linejoin="round" stroke-linecap="butt" d="m589.7337 393.3319l0.045837402 1.2998962c0.15686035 4.1532288 0.38690186 8.04068 0.67974854 11.703674c0.5856323 7.325989 1.4222412 13.75412 2.4261475 19.614899c2.0078735 11.721588 4.6850586 21.173767 7.3622437 31.000519c5.354309 19.653564 10.708618 40.80545 10.708618 81.61093" fill-rule="evenodd"/><path fill="#9b9b9b" stroke="#9b9b9b" stroke-width="2.0" stroke-linecap="butt" d="m593.0367 393.27832l-3.4502563 -9.021393l-3.1557617 9.128571z" fill-rule="evenodd"/><path fill="#000000" fill-opacity="0.0" d="m519.3015 442.20987c0 22.589874 -4.0393677 33.136414 -8.078705 45.179718c-4.039398 12.043335 -8.078766 25.583374 -8.078766 51.166748" fill-rule="evenodd"/><path stroke="#9b9b9b" stroke-width="2.0" stroke-linejoin="round" stroke-linecap="butt" d="m518.8661 454.20193l-0.030639648 0.39642334c-0.023071289 0.2852173 -0.046875 0.56817627 -0.0715332 0.848938c-0.0491333 0.56155396 -0.101379395 1.1142273 -0.15661621 1.6584167c-0.4418335 4.353607 -1.072998 8.166107 -1.8303833 11.648956c-1.5147095 6.96579 -3.5344238 12.613281 -5.5541077 18.634918c-4.0393677 12.043304 -8.078735 25.583374 -8.078735 51.166748" fill-rule="evenodd"/><path fill="#9b9b9b" stroke="#9b9b9b" stroke-width="2.0" stroke-linecap="butt" d="m522.16736 454.32184l-2.9719238 -9.190094l-3.6306152 8.950317z" fill-rule="evenodd"/><path fill="#000000" fill-opacity="0.0" d="m559.43756 505.83862c0 23.606262 8.2677 47.212585 16.535461 47.212585" fill-rule="evenodd"/><path stroke="#9b9b9b" stroke-width="2.0" stroke-linejoin="round" stroke-linecap="butt" d="m560.12054 517.8192l0.007751465 0.0715332c0.04058838 0.3579712 0.08282471 0.7149658 0.12677002 1.0708008c0.17559814 1.423523 0.37738037 2.829773 0.6035156 4.2129517c0.90423584 5.532715 2.196106 10.696594 3.7462769 15.122803c3.1004028 8.852356 7.234253 14.753906 11.368103 14.753906" fill-rule="evenodd"/><path fill="#9b9b9b" stroke="#9b9b9b" stroke-width="2.0" stroke-linecap="butt" d="m563.41864 517.63116l-3.8146973 -8.873474l-2.7815552 9.249512z" fill-rule="evenodd"/><path fill="#000000" fill-opacity="0.0" d="m430.50876 431.08356l32.22046 39.77954" fill-rule="evenodd"/><path stroke="#9b9b9b" stroke-width="2.0" stroke-linejoin="round" stroke-linecap="butt" d="m438.06168 440.40848l24.667542 30.45462" fill-rule="evenodd"/><path fill="#9b9b9b" stroke="#9b9b9b" stroke-width="2.0" stroke-linecap="butt" d="m440.6287 438.32922l-8.279694 -4.973633l3.14563 9.132111z" fill-rule="evenodd"/><path fill="#000000" fill-opacity="0.0" d="m589.539 381.3335c0 52.015747 20.393677 104.031494 40.787415 104.031494" fill-rule="evenodd"/><path stroke="#9b9b9b" stroke-width="2.0" stroke-linejoin="round" stroke-linecap="butt" d="m589.89307 393.32828l0.009643555 0.17160034c0.047851562 0.8077698 0.10028076 1.6145935 0.15722656 2.4201965c0.1138916 1.611206 0.24584961 3.2176514 0.39520264 4.817749c0.5974121 6.4003906 1.4737549 12.699158 2.5890503 18.794739c2.2305298 12.191193 5.417053 23.569641 9.240845 33.3226c7.647644 19.50589 17.844543 32.509827 28.041382 32.509827" fill-rule="evenodd"/><path fill="#9b9b9b" stroke="#9b9b9b" stroke-width="2.0" stroke-linecap="butt" d="m593.19507 393.2308l-3.5698242 -8.974762l-3.0342407 9.169678z" fill-rule="evenodd"/><path fill="#000000" fill-opacity="0.0" d="m677.19543 442.20987c0 21.574799 -2.9448853 43.149597 -5.8897705 43.149597" fill-rule="evenodd"/><path stroke="#9b9b9b" stroke-width="2.0" stroke-linejoin="round" stroke-linecap="butt" d="m676.90405 454.20633l-0.10058594 1.9361267c-0.035827637 0.6419983 -0.073913574 1.2792969 -0.11419678 1.911377c-0.32208252 5.05661 -0.78222656 9.776093 -1.3344116 13.821381c-1.1043091 8.090546 -2.5767822 13.484253 -4.0491943 13.484253" fill-rule="evenodd"/><path fill="#9b9b9b" stroke="#9b9b9b" stroke-width="2.0" stroke-linecap="butt" d="m680.2066 454.2865l-3.0821533 -9.153717l-3.5228271 8.993317z" fill-rule="evenodd"/><path fill="#000000" fill-opacity="0.0" d="m677.19543 442.20987c0 21.574799 6.2677 43.149597 12.5354 43.149597" fill-rule="evenodd"/><path stroke="#9b9b9b" stroke-width="2.0" stroke-linejoin="round" stroke-linecap="butt" d="m677.8142 454.1939l9.765625E-4 0.009552002c0.13311768 1.3009949 0.2861328 2.5862427 0.45751953 3.8503723c0.68548584 5.05661 1.664856 9.776093 2.8400269 13.821381c2.3504028 8.090546 5.484192 13.484253 8.618103 13.484253" fill-rule="evenodd"/><path fill="#9b9b9b" stroke="#9b9b9b" stroke-width="2.0" stroke-linecap="butt" d="m681.1133 454.02353l-3.7670898 -8.893768l-2.8310547 9.234467z" fill-rule="evenodd"/><path fill="#9b9b9b" d="m202.09311 55.017834l0 0c0 -11.315315 9.172867 -20.48819 20.48819 -20.48819l0 0c5.4338074 0 10.64505 2.1585732 14.487335 6.0008507c3.8422852 3.8422813 6.0008545 9.053535 6.0008545 14.487339l0 0c0 11.315311 -9.172882 20.488186 -20.48819 20.488186l0 0c-11.315323 0 -20.48819 -9.172874 -20.48819 -20.488186z" fill-rule="evenodd"/><path fill="#eeeeee" d="m223.02704 60.971584q-1.0625 0 -1.84375 -0.234375q-0.78125 -0.25 -1.296875 -0.875q-0.515625 -0.625 -0.765625 -1.8125q-0.25 -1.1875 -0.25 -3.09375q0 -1.796875 0.25 -2.953125q0.265625 -1.15625 0.78125 -1.8125q0.53125 -0.65625 1.328125 -0.921875q0.796875 -0.265625 1.890625 -0.265625q0.5 0 1.09375 0.0625q0.609375 0.0625 1.203125 0.15625q0.59375 0.09375 1.078125 0.21875l0 0.9375q-0.28125 -0.046875 -0.78125 -0.09375q-0.484375 -0.046875 -1.125 -0.078125q-0.625 -0.046875 -1.28125 -0.046875q-0.84375 0 -1.453125 0.1875q-0.609375 0.1875 -0.984375 0.71875q-0.375 0.515625 -0.5625 1.46875q-0.171875 0.9375 -0.171875 2.4375q0 1.515625 0.171875 2.484375q0.171875 0.96875 0.53125 1.484375q0.375 0.515625 0.96875 0.703125q0.59375 0.1875 1.46875 0.1875q1.203125 0 1.96875 -0.0625q0.765625 -0.0625 1.25 -0.140625l0 0.96875q-0.484375 0.109375 -1.078125 0.203125q-0.578125 0.078125 -1.1875 0.125q-0.609375 0.046875 -1.203125 0.046875z" fill-rule="nonzero"/><path fill="#9b9b9b" d="m202.09311 110.6936l0 0c0 -11.315308 9.172867 -20.48819 20.48819 -20.48819l0 0c5.4338074 0 10.64505 2.158577 14.487335 6.0008545c3.8422852 3.8422852 6.0008545 9.053535 6.0008545 14.487335l0 0c0 11.315315 -9.172882 20.48819 -20.48819 20.48819l0 0c-11.315323 0 -20.48819 -9.172874 -20.48819 -20.48819z" fill-rule="evenodd"/><path fill="#eeeeee" d="m222.81029 116.553604l0 -10.640625l-2.421875 0.65625l0 -0.8125l2.53125 -1.09375l1.171875 0l0 11.890625l-1.28125 0z" fill-rule="nonzero"/><path fill="#000000" fill-opacity="0.0" d="m202.09311 55.044758l-22.173233 0" fill-rule="evenodd"/><path stroke="#9b9b9b" stroke-width="2.0" stroke-linejoin="round" stroke-linecap="butt" d="m190.09311 55.044758l-10.173218 0" fill-rule="evenodd"/><path fill="#9b9b9b" stroke="#9b9b9b" stroke-width="2.0" stroke-linecap="butt" d="m190.09311 58.34822l9.076202 -3.303463l-9.076202 -3.303463z" fill-rule="evenodd"/><path fill="#000000" fill-opacity="0.0" d="m222.5813 90.205414l0 -14.708656" fill-rule="evenodd"/><path stroke="#9b9b9b" stroke-width="2.0" stroke-linejoin="round" stroke-linecap="butt" d="m222.5813 78.20542l0 -2.708664" fill-rule="evenodd"/><path fill="#9b9b9b" stroke="#9b9b9b" stroke-width="2.0" stroke-linecap="butt" d="m219.27783 78.20542l3.3034668 9.076195l3.3034668 -9.076195z" fill-rule="evenodd"/><path fill="#000000" fill-opacity="0.0" d="m264.7826 55.037025l-21.921265 0" fill-rule="evenodd"/><path stroke="#9b9b9b" stroke-width="2.0" stroke-linejoin="round" stroke-linecap="butt" d="m252.78258 55.03702l-9.921249 0" fill-rule="evenodd"/><path fill="#9b9b9b" stroke="#9b9b9b" stroke-width="2.0" stroke-linecap="butt" d="m252.78258 58.34049l9.076187 -3.3034668l-9.076187 -3.303463z" fill-rule="evenodd"/><path fill="#000000" fill-opacity="0.0" d="m201.84918 55.044758l-21.92125 0" fill-rule="evenodd"/><path stroke="#9b9b9b" stroke-width="2.0" stroke-linejoin="round" stroke-linecap="butt" d="m189.84918 55.044758l-9.921265 0" fill-rule="evenodd"/><path fill="#9b9b9b" stroke="#9b9b9b" stroke-width="2.0" stroke-linecap="butt" d="m189.84918 58.34822l9.076202 -3.303463l-9.076202 -3.303463z" fill-rule="evenodd"/><path fill="#9b9b9b" d="m264.78174 55.016674l0 0c0 -11.315315 9.172882 -20.48819 20.48819 -20.48819l0 0c5.4338074 0 10.64505 2.1585732 14.487335 6.0008545c3.8422852 3.8422775 6.0008545 9.053532 6.0008545 14.487335l0 0c0 11.315311 -9.172882 20.488186 -20.48819 20.488186l0 0c-11.315308 0 -20.48819 -9.172874 -20.48819 -20.488186z" fill-rule="evenodd"/><path fill="#eeeeee" d="m285.71567 60.970425q-1.0625 0 -1.84375 -0.234375q-0.78125 -0.25 -1.296875 -0.875q-0.515625 -0.625 -0.765625 -1.8125q-0.25 -1.1875 -0.25 -3.09375q0 -1.796875 0.25 -2.953125q0.265625 -1.15625 0.78125 -1.8125q0.53125 -0.65625 1.328125 -0.921875q0.796875 -0.265625 1.890625 -0.265625q0.5 0 1.09375 0.0625q0.609375 0.0625 1.203125 0.15625q0.59375 0.09375 1.078125 0.21875l0 0.9375q-0.28125 -0.046875 -0.78125 -0.09375q-0.484375 -0.046875 -1.125 -0.078125q-0.625 -0.046875 -1.28125 -0.046875q-0.84375 0 -1.453125 0.1875q-0.609375 0.1875 -0.984375 0.71875q-0.375 0.515625 -0.5625 1.46875q-0.171875 0.9375 -0.171875 2.4375q0 1.515625 0.171875 2.484375q0.171875 0.96875 0.53125 1.484375q0.375 0.515625 0.96875 0.703125q0.59375 0.1875 1.46875 0.1875q1.203125 0 1.96875 -0.0625q0.765625 -0.0625 1.25 -0.140625l0 0.96875q-0.484375 0.109375 -1.078125 0.203125q-0.578125 0.078125 -1.1875 0.125q-0.609375 0.046875 -1.203125 0.046875z" fill-rule="nonzero"/><path fill="#9b9b9b" d="m264.78174 110.692444l0 0c0 -11.315308 9.172882 -20.488182 20.48819 -20.488182l0 0c5.4338074 0 10.64505 2.1585693 14.487335 6.000847c3.8422852 3.8422852 6.0008545 9.053535 6.0008545 14.487335l0 0c0 11.315315 -9.172882 20.48819 -20.48819 20.48819l0 0c-11.315308 0 -20.48819 -9.172874 -20.48819 -20.48819z" fill-rule="evenodd"/><path fill="#eeeeee" d="m281.38528 116.552444l0 -1.046875l4.359375 -4.171875q0.671875 -0.625 1.0625 -1.15625q0.390625 -0.546875 0.5625 -1.09375q0.1875 -0.5625 0.1875 -1.21875q0 -0.578125 -0.21875 -1.015625q-0.21875 -0.453125 -0.765625 -0.703125q-0.546875 -0.265625 -1.5625 -0.265625l-3.203125 0l0 -0.96875q0.734375 -0.09375 1.625 -0.15625q0.890625 -0.078125 1.84375 -0.078125q1.34375 0 2.109375 0.390625q0.78125 0.375 1.09375 1.0625q0.328125 0.671875 0.328125 1.59375q0 0.8125 -0.21875 1.5q-0.203125 0.6875 -0.671875 1.34375q-0.46875 0.65625 -1.203125 1.359375l-3.59375 3.453125l6.125 0l0 1.171875l-7.859375 0z" fill-rule="nonzero"/><path fill="#000000" fill-opacity="0.0" d="m285.26993 90.20426l0 -14.708664" fill-rule="evenodd"/><path stroke="#9b9b9b" stroke-width="2.0" stroke-linejoin="round" stroke-linecap="butt" d="m285.26993 78.20426l0 -2.708664" fill-rule="evenodd"/><path fill="#9b9b9b" stroke="#9b9b9b" stroke-width="2.0" stroke-linecap="butt" d="m281.96646 78.20426l3.3034668 9.076195l3.3034668 -9.076195z" fill-rule="evenodd"/><path fill="#000000" fill-opacity="0.0" d="m327.47122 55.035866l-21.921265 0" fill-rule="evenodd"/><path stroke="#9b9b9b" stroke-width="2.0" stroke-linejoin="round" stroke-linecap="butt" d="m315.47122 55.035862l-9.921265 0" fill-rule="evenodd"/><path fill="#9b9b9b" stroke="#9b9b9b" stroke-width="2.0" stroke-linecap="butt" d="m315.47122 58.33933l9.076172 -3.3034668l-9.076172 -3.303463z" fill-rule="evenodd"/><path fill="#9b9b9b" d="m327.47037 55.016674l0 0c0 -11.315315 9.172882 -20.48819 20.48819 -20.48819l0 0c5.4338074 0 10.64505 2.1585732 14.487335 6.0008545c3.8422852 3.8422775 6.0008545 9.053532 6.0008545 14.487335l0 0c0 11.315311 -9.172882 20.488186 -20.48819 20.488186l0 0c-11.315308 0 -20.48819 -9.172874 -20.48819 -20.488186z" fill-rule="evenodd"/><path fill="#eeeeee" d="m348.4043 60.970425q-1.0625 0 -1.84375 -0.234375q-0.78125 -0.25 -1.296875 -0.875q-0.515625 -0.625 -0.765625 -1.8125q-0.25 -1.1875 -0.25 -3.09375q0 -1.796875 0.25 -2.953125q0.265625 -1.15625 0.78125 -1.8125q0.53125 -0.65625 1.328125 -0.921875q0.796875 -0.265625 1.890625 -0.265625q0.5 0 1.09375 0.0625q0.609375 0.0625 1.203125 0.15625q0.59375 0.09375 1.078125 0.21875l0 0.9375q-0.28125 -0.046875 -0.78125 -0.09375q-0.484375 -0.046875 -1.125 -0.078125q-0.625 -0.046875 -1.28125 -0.046875q-0.84375 0 -1.453125 0.1875q-0.609375 0.1875 -0.984375 0.71875q-0.375 0.515625 -0.5625 1.46875q-0.171875 0.9375 -0.171875 2.4375q0 1.515625 0.171875 2.484375q0.171875 0.96875 0.53125 1.484375q0.375 0.515625 0.96875 0.703125q0.59375 0.1875 1.46875 0.1875q1.203125 0 1.96875 -0.0625q0.765625 -0.0625 1.25 -0.140625l0 0.96875q-0.484375 0.109375 -1.078125 0.203125q-0.578125 0.078125 -1.1875 0.125q-0.609375 0.046875 -1.203125 0.046875z" fill-rule="nonzero"/><path fill="#9b9b9b" d="m327.47037 110.692444l0 0c0 -11.315308 9.172882 -20.488182 20.48819 -20.488182l0 0c5.4338074 0 10.64505 2.1585693 14.487335 6.000847c3.8422852 3.8422852 6.0008545 9.053535 6.0008545 14.487335l0 0c0 11.315315 -9.172882 20.48819 -20.48819 20.48819l0 0c-11.315308 0 -20.48819 -9.172874 -20.48819 -20.48819z" fill-rule="evenodd"/><path fill="#eeeeee" d="m348.23166 116.646194q-1.25 0 -2.359375 -0.0625q-1.09375 -0.046875 -1.90625 -0.140625l0 -0.984375l3.859375 0q0.6875 0 1.21875 -0.140625q0.546875 -0.140625 0.859375 -0.53125q0.3125 -0.390625 0.3125 -1.109375l0 -0.78125q0 -0.625 -0.3125 -1.0q-0.3125 -0.375 -0.78125 -0.53125q-0.453125 -0.15625 -0.953125 -0.171875l-3.015625 -0.109375l0 -0.9375l2.96875 -0.125q0.875 -0.03125 1.40625 -0.375q0.53125 -0.34375 0.53125 -1.15625l0 -0.78125q0 -0.890625 -0.59375 -1.359375q-0.578125 -0.46875 -1.734375 -0.46875l-3.359375 0l0 -0.96875q0.734375 -0.109375 1.6875 -0.171875q0.953125 -0.0625 2.125 -0.0625q1.0625 0.015625 1.75 0.359375q0.703125 0.34375 1.03125 0.96875q0.34375 0.609375 0.34375 1.4375l0 1.015625q0 0.546875 -0.171875 0.9375q-0.15625 0.390625 -0.421875 0.65625q-0.265625 0.25 -0.5625 0.390625q-0.296875 0.125 -0.53125 0.171875q0.265625 0.0625 0.578125 0.234375q0.328125 0.171875 0.625 0.46875q0.296875 0.28125 0.484375 0.71875q0.1875 0.421875 0.1875 1.015625l0 0.8125q0 1.359375 -0.859375 2.078125q-0.84375 0.703125 -2.40625 0.703125z" fill-rule="nonzero"/><path fill="#000000" fill-opacity="0.0" d="m347.95856 90.20426l0 -14.708664" fill-rule="evenodd"/><path stroke="#9b9b9b" stroke-width="2.0" stroke-linejoin="round" stroke-linecap="butt" d="m347.95853 78.20426l0 -2.708664" fill-rule="evenodd"/><path fill="#9b9b9b" stroke="#9b9b9b" stroke-width="2.0" stroke-linecap="butt" d="m344.65506 78.20426l3.3034668 9.076195l3.3034668 -9.076195z" fill-rule="evenodd"/><path fill="#000000" fill-opacity="0.0" d="m390.15985 55.035866l-21.921265 0" fill-rule="evenodd"/><path stroke="#9b9b9b" stroke-width="2.0" stroke-linejoin="round" stroke-linecap="butt" d="m378.15982 55.035862l-9.921265 0" fill-rule="evenodd"/><path fill="#9b9b9b" stroke="#9b9b9b" stroke-width="2.0" stroke-linecap="butt" d="m378.15982 58.33933l9.076202 -3.3034668l-9.076202 -3.303463z" fill-rule="evenodd"/></g></svg>