<?xml version="1.0" encoding="UTF-8" standalone="no"?>
<!DOCTYPE svg PUBLIC "-//W3C//DTD SVG 1.1//EN"
 "http://www.w3.org/Graphics/SVG/1.1/DTD/svg11.dtd">
<!-- Generated by graphviz version 6.0.1 (20220911.1526)
 -->
<!-- Title: G Pages: 1 -->
<svg width="754pt" height="404pt"
 viewBox="0.00 0.00 754.10 404.00" xmlns="http://www.w3.org/2000/svg" xmlns:xlink="http://www.w3.org/1999/xlink">
<g id="graph0" class="graph" transform="scale(1 1) rotate(0) translate(4 400)">
<title>G</title>
<polygon fill="white" stroke="none" points="-4,4 -4,-400 750.1,-400 750.1,4 -4,4"/>
<!-- parser_parse -->
<g id="node1" class="node">
<title>parser_parse</title>
<ellipse fill="none" stroke="black" cx="468" cy="-378" rx="55.49" ry="18"/>
<text text-anchor="middle" x="468" y="-374.3" font-family="Times,serif" font-size="14.00">parser_parse</text>
</g>
<!-- eval_eval -->
<g id="node2" class="node">
<title>eval_eval</title>
<ellipse fill="none" stroke="black" cx="389" cy="-90" rx="44.39" ry="18"/>
<text text-anchor="middle" x="389" y="-86.3" font-family="Times,serif" font-size="14.00">eval_eval</text>
</g>
<!-- parser_parse&#45;&gt;eval_eval -->
<g id="edge7" class="edge">
<title>parser_parse&#45;&gt;eval_eval</title>
<path fill="none" stroke="black" d="M506.52,-365C574.99,-342.8 713.22,-293.78 740,-252 748.63,-238.53 747.12,-230.33 740,-216 716.43,-168.56 693.24,-165.91 645,-144 579.14,-114.09 496.06,-100.88 442.73,-95.17"/>
<polygon fill="black" stroke="black" points="442.78,-91.65 432.48,-94.12 442.07,-98.62 442.78,-91.65"/>
</g>
<!-- bin_main -->
<g id="node3" class="node">
<title>bin_main</title>
<ellipse fill="none" stroke="black" cx="194" cy="-18" rx="44.39" ry="18"/>
<text text-anchor="middle" x="194" y="-14.3" font-family="Times,serif" font-size="14.00">bin_main</text>
</g>
<!-- parser_parse&#45;&gt;bin_main -->
<g id="edge1" class="edge">
<title>parser_parse&#45;&gt;bin_main</title>
<path fill="none" stroke="black" d="M415.22,-372.25C292.83,-359.78 0,-320.97 0,-235 0,-235 0,-235 0,-161 0,-88.2 90.05,-48.69 147.44,-30.89"/>
<polygon fill="black" stroke="black" points="148.47,-34.24 157.05,-28.02 146.47,-27.53 148.47,-34.24"/>
</g>
<!-- eval_syntax -->
<g id="node4" class="node">
<title>eval_syntax</title>
<ellipse fill="none" stroke="black" cx="468" cy="-306" rx="52.79" ry="18"/>
<text text-anchor="middle" x="468" y="-302.3" font-family="Times,serif" font-size="14.00">eval_syntax</text>
</g>
<!-- parser_parse&#45;&gt;eval_syntax -->
<g id="edge22" class="edge">
<title>parser_parse&#45;&gt;eval_syntax</title>
<path fill="none" stroke="black" d="M462.12,-360.05C461.3,-352.35 461.06,-343.03 461.39,-334.36"/>
<polygon fill="black" stroke="black" points="464.89,-334.49 462.09,-324.28 457.91,-334.01 464.89,-334.49"/>
</g>
<!-- eval_preprocess -->
<g id="node6" class="node">
<title>eval_preprocess</title>
<ellipse fill="none" stroke="black" cx="663" cy="-234" rx="67.69" ry="18"/>
<text text-anchor="middle" x="663" y="-230.3" font-family="Times,serif" font-size="14.00">eval_preprocess</text>
</g>
<!-- parser_parse&#45;&gt;eval_preprocess -->
<g id="edge18" class="edge">
<title>parser_parse&#45;&gt;eval_preprocess</title>
<path fill="none" stroke="black" d="M489.61,-361.26C524.37,-335.95 592.79,-286.13 632.5,-257.21"/>
<polygon fill="black" stroke="black" points="634.97,-259.74 640.99,-251.03 630.85,-254.08 634.97,-259.74"/>
</g>
<!-- eval_eval&#45;&gt;bin_main -->
<g id="edge2" class="edge">
<title>eval_eval&#45;&gt;bin_main</title>
<path fill="none" stroke="black" d="M356.8,-77.44C323.68,-65.55 271.94,-46.98 235.71,-33.97"/>
<polygon fill="black" stroke="black" points="236.52,-30.54 225.92,-30.46 234.15,-37.13 236.52,-30.54"/>
</g>
<!-- eval_syntax&#45;&gt;parser_parse -->
<g id="edge23" class="edge">
<title>eval_syntax&#45;&gt;parser_parse</title>
<path fill="none" stroke="black" d="M473.91,-324.28C474.71,-332.03 474.94,-341.36 474.59,-350.01"/>
<polygon fill="black" stroke="black" points="471.09,-349.83 473.88,-360.05 478.08,-350.33 471.09,-349.83"/>
</g>
<!-- eval_syntax&#45;&gt;eval_eval -->
<g id="edge3" class="edge">
<title>eval_syntax&#45;&gt;eval_eval</title>
<path fill="none" stroke="black" d="M416.3,-302.09C311.17,-295.65 80.4,-278.61 57,-252 -27.71,-155.67 223.25,-111.53 336.57,-96.88"/>
<polygon fill="black" stroke="black" points="337.28,-100.31 346.76,-95.59 336.4,-93.37 337.28,-100.31"/>
</g>
<!-- eval_pushout -->
<g id="node5" class="node">
<title>eval_pushout</title>
<ellipse fill="none" stroke="black" cx="551" cy="-162" rx="57.69" ry="18"/>
<text text-anchor="middle" x="551" y="-158.3" font-family="Times,serif" font-size="14.00">eval_pushout</text>
</g>
<!-- eval_syntax&#45;&gt;eval_pushout -->
<g id="edge19" class="edge">
<title>eval_syntax&#45;&gt;eval_pushout</title>
<path fill="none" stroke="black" d="M501.42,-291.85C518.53,-283.24 537.84,-270.18 548,-252 558.4,-233.39 558.47,-208.99 556.31,-190.45"/>
<polygon fill="black" stroke="black" points="559.74,-189.7 554.85,-180.3 552.81,-190.7 559.74,-189.7"/>
</g>
<!-- eval_syntax&#45;&gt;eval_preprocess -->
<g id="edge17" class="edge">
<title>eval_syntax&#45;&gt;eval_preprocess</title>
<path fill="none" stroke="black" d="M502.86,-292.49C534.1,-281.27 580.23,-264.71 614.96,-252.25"/>
<polygon fill="black" stroke="black" points="616.2,-255.52 624.43,-248.85 613.84,-248.93 616.2,-255.52"/>
</g>
<!-- eval_postprocess -->
<g id="node7" class="node">
<title>eval_postprocess</title>
<ellipse fill="none" stroke="black" cx="468" cy="-234" rx="70.69" ry="18"/>
<text text-anchor="middle" x="468" y="-230.3" font-family="Times,serif" font-size="14.00">eval_postprocess</text>
</g>
<!-- eval_syntax&#45;&gt;eval_postprocess -->
<g id="edge16" class="edge">
<title>eval_syntax&#45;&gt;eval_postprocess</title>
<path fill="none" stroke="black" d="M468,-287.7C468,-279.98 468,-270.71 468,-262.11"/>
<polygon fill="black" stroke="black" points="471.5,-262.1 468,-252.1 464.5,-262.1 471.5,-262.1"/>
</g>
<!-- eval_match_ctxs -->
<g id="node8" class="node">
<title>eval_match_ctxs</title>
<ellipse fill="none" stroke="black" cx="309" cy="-234" rx="70.39" ry="18"/>
<text text-anchor="middle" x="309" y="-230.3" font-family="Times,serif" font-size="14.00">eval_match_ctxs</text>
</g>
<!-- eval_syntax&#45;&gt;eval_match_ctxs -->
<g id="edge15" class="edge">
<title>eval_syntax&#45;&gt;eval_match_ctxs</title>
<path fill="none" stroke="black" d="M436.97,-291.34C412.71,-280.66 378.73,-265.7 351.88,-253.88"/>
<polygon fill="black" stroke="black" points="353.27,-250.66 342.7,-249.84 350.45,-257.07 353.27,-250.66"/>
</g>
<!-- eval_match_atoms -->
<g id="node9" class="node">
<title>eval_match_atoms</title>
<ellipse fill="none" stroke="black" cx="143" cy="-234" rx="77.19" ry="18"/>
<text text-anchor="middle" x="143" y="-230.3" font-family="Times,serif" font-size="14.00">eval_match_atoms</text>
</g>
<!-- eval_syntax&#45;&gt;eval_match_atoms -->
<g id="edge14" class="edge">
<title>eval_syntax&#45;&gt;eval_match_atoms</title>
<path fill="none" stroke="black" d="M424.51,-295.63C368.85,-283.64 271.96,-262.78 207.65,-248.92"/>
<polygon fill="black" stroke="black" points="208.13,-245.45 197.62,-246.76 206.65,-252.29 208.13,-245.45"/>
</g>
<!-- eval_pushout&#45;&gt;eval_eval -->
<g id="edge4" class="edge">
<title>eval_pushout&#45;&gt;eval_eval</title>
<path fill="none" stroke="black" d="M518.61,-147C492.34,-135.65 455.25,-119.63 427.48,-107.63"/>
<polygon fill="black" stroke="black" points="428.64,-104.32 418.07,-103.56 425.87,-110.74 428.64,-104.32"/>
</g>
<!-- eval_preprocess&#45;&gt;eval_eval -->
<g id="edge5" class="edge">
<title>eval_preprocess&#45;&gt;eval_eval</title>
<path fill="none" stroke="black" d="M659.02,-215.77C653.41,-195.45 641.16,-162.16 618,-144 567.83,-104.66 493.6,-93.59 443.37,-90.95"/>
<polygon fill="black" stroke="black" points="443.49,-87.45 433.34,-90.51 443.18,-94.44 443.49,-87.45"/>
</g>
<!-- eval_preprocess&#45;&gt;eval_pushout -->
<g id="edge20" class="edge">
<title>eval_preprocess&#45;&gt;eval_pushout</title>
<path fill="none" stroke="black" d="M637.87,-217.29C622.05,-207.4 601.45,-194.53 584.29,-183.8"/>
<polygon fill="black" stroke="black" points="586,-180.75 575.67,-178.42 582.29,-186.68 586,-180.75"/>
</g>
<!-- eval_postprocess&#45;&gt;eval_eval -->
<g id="edge6" class="edge">
<title>eval_postprocess&#45;&gt;eval_eval</title>
<path fill="none" stroke="black" d="M458.63,-216.15C444.97,-191.6 419.47,-145.77 403.41,-116.91"/>
<polygon fill="black" stroke="black" points="406.28,-114.86 398.36,-107.82 400.16,-118.27 406.28,-114.86"/>
</g>
<!-- eval_postprocess&#45;&gt;eval_pushout -->
<g id="edge21" class="edge">
<title>eval_postprocess&#45;&gt;eval_pushout</title>
<path fill="none" stroke="black" d="M487.67,-216.41C498.5,-207.28 512.1,-195.81 523.92,-185.84"/>
<polygon fill="black" stroke="black" points="526.37,-188.35 531.76,-179.23 521.86,-183 526.37,-188.35"/>
</g>
<!-- eval_match -->
<g id="node10" class="node">
<title>eval_match</title>
<ellipse fill="none" stroke="black" cx="309" cy="-162" rx="51.99" ry="18"/>
<text text-anchor="middle" x="309" y="-158.3" font-family="Times,serif" font-size="14.00">eval_match</text>
</g>
<!-- eval_postprocess&#45;&gt;eval_match -->
<g id="edge11" class="edge">
<title>eval_postprocess&#45;&gt;eval_match</title>
<path fill="none" stroke="black" d="M434.28,-218.15C409.44,-207.22 375.55,-192.3 349.28,-180.73"/>
<polygon fill="black" stroke="black" points="350.54,-177.46 339.98,-176.64 347.72,-183.87 350.54,-177.46"/>
</g>
<!-- eval_match_ctxs&#45;&gt;eval_eval -->
<g id="edge8" class="edge">
<title>eval_match_ctxs&#45;&gt;eval_eval</title>
<path fill="none" stroke="black" d="M334.19,-216.98C346.81,-207.68 361.23,-194.86 370,-180 381.07,-161.23 385.73,-136.85 387.67,-118.35"/>
<polygon fill="black" stroke="black" points="391.17,-118.49 388.52,-108.23 384.19,-117.9 391.17,-118.49"/>
</g>
<!-- eval_match_ctxs&#45;&gt;eval_match -->
<g id="edge12" class="edge">
<title>eval_match_ctxs&#45;&gt;eval_match</title>
<path fill="none" stroke="black" d="M309,-215.7C309,-207.98 309,-198.71 309,-190.11"/>
<polygon fill="black" stroke="black" points="312.5,-190.1 309,-180.1 305.5,-190.1 312.5,-190.1"/>
</g>
<!-- eval_match_atoms&#45;&gt;eval_eval -->
<g id="edge9" class="edge">
<title>eval_match_atoms&#45;&gt;eval_eval</title>
<path fill="none" stroke="black" d="M159.07,-216.24C178.58,-196.69 213.18,-164.46 248,-144 278.05,-126.34 315.03,-112.7 343.58,-103.69"/>
<polygon fill="black" stroke="black" points="344.77,-106.98 353.3,-100.69 342.71,-100.29 344.77,-106.98"/>
</g>
<!-- eval_match_atoms&#45;&gt;eval_match -->
<g id="edge13" class="edge">
<title>eval_match_atoms&#45;&gt;eval_match</title>
<path fill="none" stroke="black" d="M178.61,-217.98C204.86,-206.92 240.61,-191.84 268.04,-180.27"/>
<polygon fill="black" stroke="black" points="269.52,-183.45 277.37,-176.34 266.8,-177 269.52,-183.45"/>
</g>
<!-- eval_match&#45;&gt;eval_eval -->
<g id="edge10" class="edge">
<title>eval_match&#45;&gt;eval_eval</title>
<path fill="none" stroke="black" d="M327.15,-145.12C337.87,-135.74 351.59,-123.73 363.39,-113.41"/>
<polygon fill="black" stroke="black" points="365.97,-115.8 371.19,-106.58 361.36,-110.53 365.97,-115.8"/>
</g>
<!-- parser_syntax -->
<g id="node11" class="node">
<title>parser_syntax</title>
<ellipse fill="none" stroke="black" cx="601" cy="-378" rx="59.59" ry="18"/>
<text text-anchor="middle" x="601" y="-374.3" font-family="Times,serif" font-size="14.00">parser_syntax</text>
</g>
</g>
</svg>
